<?xml version="1.0" encoding="UTF-8"?>
<!DOCTYPE svg PUBLIC "-//W3C//DTD SVG 1.1//EN" "http://www.w3.org/Graphics/SVG/1.1/DTD/svg11.dtd">
<svg xmlns="http://www.w3.org/2000/svg" version="1.1" width="512px" height="512px" style="shape-rendering:geometricPrecision; text-rendering:geometricPrecision; image-rendering:optimizeQuality; fill-rule:evenodd; clip-rule:evenodd" xmlns:xlink="http://www.w3.org/1999/xlink">
<g><path style="opacity:0.995" fill="#afd2ef" d="M 511.5,225.5 C 511.5,233.833 511.5,242.167 511.5,250.5C 503.14,286.86 480.474,307.526 443.5,312.5C 418.759,312.177 394.092,312.51 369.5,313.5C 293.5,313.5 217.5,313.5 141.5,313.5C 124.24,312.681 106.907,312.181 89.5,312C 84.8824,310.842 80.2158,310.008 75.5,309.5C 33.3858,294.715 8.0525,265.382 -0.5,221.5C -0.5,211.833 -0.5,202.167 -0.5,192.5C 9.00076,143.165 38.3341,112.998 87.5,102C 96.1621,101.13 104.829,100.297 113.5,99.5C 132.436,55.1875 165.769,29.3542 213.5,22C 267.308,17.654 308.474,38.154 337,83.5C 339.773,88.7128 342.273,94.0461 344.5,99.5C 379.701,100.178 407.201,114.845 427,143.5C 430.932,149.363 433.765,155.696 435.5,162.5C 476.612,164.622 501.945,185.622 511.5,225.5 Z"/></g>
<g><path style="opacity:1" fill="#ebeff0" d="M 210.5,48.5 C 215.179,48.3342 219.845,48.5008 224.5,49C 228.788,52.7712 229.621,57.2712 227,62.5C 196.013,67.1422 175.679,84.4755 166,114.5C 159.775,120.372 154.442,119.705 150,112.5C 157.253,79.0168 177.42,57.6834 210.5,48.5 Z"/></g>
<g><path style="opacity:1" fill="#ebeff0" d="M 71.5,134.5 C 80.0047,133.514 84.1714,137.18 84,145.5C 82.8783,147.624 81.3783,149.457 79.5,151C 51.6101,165.947 40.1101,189.114 45,220.5C 46.3333,224.5 47.6667,228.5 49,232.5C 52.5622,238.705 56.0622,244.871 59.5,251C 57.9576,258.21 53.6243,260.877 46.5,259C 35.637,247.769 29.137,234.269 27,218.5C 23.6964,180.769 38.5297,152.769 71.5,134.5 Z"/></g>
<g><path style="opacity:1" fill="#3c97d3" d="M 174.5,144.5 C 178.514,144.56 181.681,146.227 184,149.5C 196,185.5 208,221.5 220,257.5C 220.181,265.977 216.014,269.477 207.5,268C 206.5,267.167 205.5,266.333 204.5,265.5C 199.636,252.242 194.969,238.909 190.5,225.5C 180.833,224.167 171.167,224.167 161.5,225.5C 157.08,239.43 152.08,253.097 146.5,266.5C 135.486,270.333 130.986,266.333 133,254.5C 144.667,219.5 156.333,184.5 168,149.5C 169.805,147.174 171.972,145.508 174.5,144.5 Z"/></g>
<g><path style="opacity:1" fill="#3c97d3" d="M 276.5,215.5 C 266.5,215.5 256.5,215.5 246.5,215.5C 246.5,230.5 246.5,245.5 246.5,260.5C 244.628,268.267 239.961,270.434 232.5,267C 230.959,265.421 229.792,263.587 229,261.5C 228.013,224.082 228.346,186.749 230,149.5C 231.167,148.333 232.333,147.167 233.5,146C 249.5,145.333 265.5,145.333 281.5,146C 300.306,152.473 309.14,165.64 308,185.5C 304.467,202.868 293.967,212.868 276.5,215.5 Z"/></g>
<g><path style="opacity:1" fill="#3b97d3" d="M 371.5,162.5 C 365.167,162.5 358.833,162.5 352.5,162.5C 352.5,192.167 352.5,221.833 352.5,251.5C 359.167,251.5 365.833,251.5 372.5,251.5C 378.207,253.958 380.041,258.291 378,264.5C 377.167,265.333 376.333,266.167 375.5,267C 364.927,268.145 354.26,268.645 343.5,268.5C 333.5,268.333 323.5,268.167 313.5,268C 308.553,264.49 307.387,259.99 310,254.5C 311.488,252.84 313.321,251.84 315.5,251.5C 322.167,251.5 328.833,251.5 335.5,251.5C 335.5,221.833 335.5,192.167 335.5,162.5C 328.833,162.5 322.167,162.5 315.5,162.5C 309.981,160.47 307.814,156.47 309,150.5C 309.465,149.069 310.299,147.903 311.5,147C 322.073,145.855 332.74,145.355 343.5,145.5C 354.26,145.355 364.927,145.855 375.5,147C 378.428,150.257 379.262,154.091 378,158.5C 376.362,160.734 374.195,162.067 371.5,162.5 Z"/></g>
<g><path style="opacity:1" fill="#87bee5" d="M 275.5,163.5 C 266.167,163.5 256.833,163.5 247.5,163.5C 247.5,174.833 247.5,186.167 247.5,197.5C 256.833,197.5 266.167,197.5 275.5,197.5C 266.014,198.494 256.348,198.827 246.5,198.5C 246.5,186.5 246.5,174.5 246.5,162.5C 256.348,162.173 266.014,162.506 275.5,163.5 Z"/></g>
<g><path style="opacity:1" fill="#afd2ef" d="M 275.5,163.5 C 288.842,166.841 293.342,175.175 289,188.5C 286.229,194.106 281.729,197.106 275.5,197.5C 266.167,197.5 256.833,197.5 247.5,197.5C 247.5,186.167 247.5,174.833 247.5,163.5C 256.833,163.5 266.167,163.5 275.5,163.5 Z"/></g>
<g><path style="opacity:1" fill="#75b4e1" d="M 315.5,162.5 C 322.167,162.5 328.833,162.5 335.5,162.5C 335.5,192.167 335.5,221.833 335.5,251.5C 328.833,251.5 322.167,251.5 315.5,251.5C 321.645,250.51 327.978,250.177 334.5,250.5C 334.5,221.5 334.5,192.5 334.5,163.5C 327.978,163.823 321.645,163.49 315.5,162.5 Z"/></g>
<g><path style="opacity:1" fill="#9cc8eb" d="M 371.5,162.5 C 365.69,163.49 359.69,163.823 353.5,163.5C 353.5,192.5 353.5,221.5 353.5,250.5C 360.022,250.177 366.355,250.51 372.5,251.5C 365.833,251.5 359.167,251.5 352.5,251.5C 352.5,221.833 352.5,192.167 352.5,162.5C 358.833,162.5 365.167,162.5 371.5,162.5 Z"/></g>
<g><path style="opacity:1" fill="#acd0ef" d="M 183.5,205.5 C 178.5,206.833 173.5,206.833 168.5,205.5C 170.494,197.686 172.994,190.019 176,182.5C 179.006,190.019 181.506,197.686 183.5,205.5 Z"/></g>
<g><path style="opacity:1" fill="#70b2e0" d="M 168.5,205.5 C 173.5,206.833 178.5,206.833 183.5,205.5C 184.043,205.56 184.376,205.893 184.5,206.5C 178.833,207.833 173.167,207.833 167.5,206.5C 167.624,205.893 167.957,205.56 168.5,205.5 Z"/></g>
<g><path style="opacity:1" fill="#99c7ea" d="M 276.5,215.5 C 267.014,216.494 257.348,216.827 247.5,216.5C 247.829,231.343 247.496,246.01 246.5,260.5C 246.5,245.5 246.5,230.5 246.5,215.5C 256.5,215.5 266.5,215.5 276.5,215.5 Z"/></g>
<g><path style="opacity:0.992" fill="#3f5c6c" d="M 75.5,309.5 C 80.2158,310.008 84.8824,310.842 89.5,312C 106.907,312.181 124.24,312.681 141.5,313.5C 160.295,357.764 193.628,383.597 241.5,391C 293.732,394.301 333.898,374.135 362,330.5C 365.062,325.047 367.562,319.38 369.5,313.5C 394.092,312.51 418.759,312.177 443.5,312.5C 451.076,315.951 458.743,319.451 466.5,323C 467.93,324.907 468.596,327.074 468.5,329.5C 461.912,348.018 454.745,366.351 447,384.5C 445.038,390.812 440.872,393.312 434.5,392C 422.167,386.833 409.833,381.667 397.5,376.5C 385.508,391.992 371.675,405.658 356,417.5C 360.378,430.28 365.378,442.947 371,455.5C 372.378,459.898 371.212,463.398 367.5,466C 349.167,473.667 330.833,481.333 312.5,489C 306.521,490.928 302.354,489.095 300,483.5C 295.167,471.833 290.333,460.167 285.5,448.5C 284.167,448.167 282.833,447.833 281.5,447.5C 264.165,450.138 246.832,450.138 229.5,447.5C 228.167,447.833 226.833,448.167 225.5,448.5C 220.292,461.622 214.792,474.622 209,487.5C 205.744,489.429 202.244,489.929 198.5,489C 180.914,481.471 163.248,474.138 145.5,467C 140.055,464.89 138.222,461.056 140,455.5C 145.167,443.167 150.333,430.833 155.5,418.5C 140.008,406.508 126.342,392.675 114.5,377C 101.72,381.378 89.0529,386.378 76.5,392C 72.6115,393.14 69.2781,392.307 66.5,389.5C 57.901,369.696 49.901,349.696 42.5,329.5C 42.4035,327.074 43.0702,324.907 44.5,323C 54.923,318.449 65.2564,313.949 75.5,309.5 Z M 141.5,313.5 C 217.5,313.5 293.5,313.5 369.5,313.5C 367.562,319.38 365.062,325.047 362,330.5C 333.898,374.135 293.732,394.301 241.5,391C 193.628,383.597 160.295,357.764 141.5,313.5 Z"/></g>
</svg>
