<?xml version="1.0" encoding="UTF-8"?>
<!DOCTYPE svg PUBLIC "-//W3C//DTD SVG 1.1//EN" "http://www.w3.org/Graphics/SVG/1.1/DTD/svg11.dtd">
<svg xmlns="http://www.w3.org/2000/svg" version="1.1" width="350px" height="344px" style="shape-rendering:geometricPrecision; text-rendering:geometricPrecision; image-rendering:optimizeQuality; fill-rule:evenodd; clip-rule:evenodd" xmlns:xlink="http://www.w3.org/1999/xlink">
<g><path style="opacity:0.993" fill="#4479a1" d="M 155.5,-0.5 C 168.167,-0.5 180.833,-0.5 193.5,-0.5C 264.091,9.59654 312.925,47.5965 340,113.5C 344.3,126.363 347.467,139.363 349.5,152.5C 349.5,165.167 349.5,177.833 349.5,190.5C 337.202,264.304 295.535,313.138 224.5,337C 214.15,339.769 203.816,341.935 193.5,343.5C 180.833,343.5 168.167,343.5 155.5,343.5C 84.9088,333.403 36.0754,295.403 9,229.5C 4.70016,216.637 1.5335,203.637 -0.5,190.5C -0.5,177.833 -0.5,165.167 -0.5,152.5C 11.7979,78.6958 53.4645,29.8625 124.5,6C 134.85,3.2312 145.184,1.06453 155.5,-0.5 Z"/></g>
<g><path style="opacity:1" fill="#edf2f5" d="M 198.5,69.5 C 204.509,70.0031 209.843,72.1698 214.5,76C 220.523,76.4522 226.19,78.1189 231.5,81C 241.045,87.5443 248.878,95.711 255,105.5C 257.785,113.071 261.119,120.405 265,127.5C 274.373,131.04 282.206,136.707 288.5,144.5C 283.791,145.561 279.124,146.728 274.5,148C 280.76,152.256 286.427,157.256 291.5,163C 285.649,159.733 279.649,156.4 273.5,153C 268.625,149.572 268.625,146.572 273.5,144C 276.753,142.964 280.086,142.297 283.5,142C 280.167,139.667 276.833,137.333 273.5,135C 269.598,133.98 265.932,132.48 262.5,130.5C 257.143,119.276 251.31,108.276 245,97.5C 236.543,87.0194 225.71,80.8527 212.5,79C 209.002,76.5011 205.168,74.6677 201,73.5C 199.72,73.6135 198.887,74.2801 198.5,75.5C 203.92,82.3402 207.753,90.0069 210,98.5C 211.455,101.613 213.288,104.446 215.5,107C 211.695,115.412 211.529,123.912 215,132.5C 215.667,133.167 216.333,133.833 217,134.5C 217.174,129.139 219.007,124.472 222.5,120.5C 226.148,128.138 229.982,135.471 234,142.5C 229.161,138.672 225.494,134.005 223,128.5C 219.399,141.718 215.066,141.718 210,128.5C 209.129,121.23 209.629,114.064 211.5,107C 207.894,100.854 205.061,94.3536 203,87.5C 200.277,84.4432 197.944,81.1099 196,77.5C 195.388,74.3893 196.221,71.7226 198.5,69.5 Z"/></g>
<g><path style="opacity:1" fill="#eff3f7" d="M 215.5,87.5 C 216.542,86.2089 217.708,86.2089 219,87.5C 219.781,88.9437 219.614,90.277 218.5,91.5C 217.479,90.0986 216.479,88.7653 215.5,87.5 Z"/></g>
<g><path style="opacity:1" fill="#f8fafb" d="M 68.5,174.5 C 68.6309,173.624 68.2975,172.957 67.5,172.5C 65.9243,182.771 65.2576,193.104 65.5,203.5C 65.5,207.5 65.5,211.5 65.5,215.5C 62.8333,215.5 60.1667,215.5 57.5,215.5C 57.8972,197.464 58.8972,179.464 60.5,161.5C 64.7675,161.203 68.9341,161.536 73,162.5C 77.2693,175.141 81.436,187.808 85.5,200.5C 89.564,187.808 93.7307,175.141 98,162.5C 101.73,161.54 105.563,161.207 109.5,161.5C 111.627,179.441 112.961,197.441 113.5,215.5C 110.5,215.5 107.5,215.5 104.5,215.5C 104.39,201.124 103.556,186.79 102,172.5C 96.602,186.528 92.102,200.862 88.5,215.5C 85.8806,215.768 83.3806,215.435 81,214.5C 76.8276,201.137 72.661,187.803 68.5,174.5 Z"/></g>
<g><path style="opacity:1" fill="#fba31a" d="M 171.5,160.5 C 175.877,160.577 180.21,161.077 184.5,162C 188.765,163.2 189.431,165.367 186.5,168.5C 180.421,165.502 174.588,165.836 169,169.5C 166.633,173.999 167.467,177.832 171.5,181C 176.833,184 182.167,187 187.5,190C 189.049,191.214 190.215,192.714 191,194.5C 194.008,205.328 190.175,212.161 179.5,215C 172.785,216.248 166.452,215.248 160.5,212C 159.328,210.132 159.495,208.298 161,206.5C 166.155,209.305 171.655,210.138 177.5,209C 185.405,203.859 185.405,198.525 177.5,193C 173.167,190.667 168.833,188.333 164.5,186C 158.923,180.146 158.09,173.646 162,166.5C 164.843,163.837 168.009,161.837 171.5,160.5 Z"/></g>
<g><path style="opacity:1" fill="#fba31b" d="M 213.5,160.5 C 231.747,159.413 240.414,168.08 239.5,186.5C 240.028,195.913 237.362,204.246 231.5,211.5C 234.431,213.306 237.431,215.139 240.5,217C 239.458,218.918 238.292,220.751 237,222.5C 229.025,216.124 219.858,213.624 209.5,215C 204.667,212.833 201.167,209.333 199,204.5C 196.227,195.247 195.894,185.914 198,176.5C 200.292,168.153 205.459,162.819 213.5,160.5 Z"/></g>
<g><path style="opacity:1" fill="#fea314" d="M 248.5,161.5 C 250.833,161.5 253.167,161.5 255.5,161.5C 255.17,177.342 255.504,193.009 256.5,208.5C 261.64,209.488 266.974,209.821 272.5,209.5C 272.5,211.167 272.5,212.833 272.5,214.5C 264.5,214.5 256.5,214.5 248.5,214.5C 248.5,196.833 248.5,179.167 248.5,161.5 Z"/></g>
<g><path style="opacity:1" fill="#a7a38c" d="M 247.5,161.5 C 250.287,160.523 253.287,160.19 256.5,160.5C 256.5,176.5 256.5,192.5 256.5,208.5C 255.504,193.009 255.17,177.342 255.5,161.5C 253.167,161.5 250.833,161.5 248.5,161.5C 248.167,161.5 247.833,161.5 247.5,161.5 Z"/></g>
<g><path style="opacity:1" fill="#4a7ba1" d="M 214.5,166.5 C 223.511,165.584 228.678,169.584 230,178.5C 230.667,185.167 230.667,191.833 230,198.5C 227.433,208.7 221.267,211.867 211.5,208C 208.769,205.374 206.936,202.207 206,198.5C 205.333,191.5 205.333,184.5 206,177.5C 206.945,172.233 209.779,168.566 214.5,166.5 Z"/></g>
<g><path style="opacity:1" fill="#f7f9fb" d="M 118.5,175.5 C 121.5,175.5 124.5,175.5 127.5,175.5C 130.901,186.038 133.901,196.705 136.5,207.5C 140.114,197.095 142.447,186.428 143.5,175.5C 146.5,175.5 149.5,175.5 152.5,175.5C 150.159,191.022 145.326,205.688 138,219.5C 133.449,226.86 126.949,230.027 118.5,229C 117.594,227.301 117.261,225.467 117.5,223.5C 124.84,224.674 129.173,221.674 130.5,214.5C 126.896,201.356 122.896,188.356 118.5,175.5 Z"/></g>
<g><path style="opacity:1" fill="#89aac3" d="M 68.5,174.5 C 67.4558,184.163 66.4558,193.83 65.5,203.5C 65.2576,193.104 65.9243,182.771 67.5,172.5C 68.2975,172.957 68.6309,173.624 68.5,174.5 Z"/></g>
<g><path style="opacity:1" fill="#d09e48" d="M 277.5,209.5 C 278.946,208.387 280.613,208.22 282.5,209C 280.901,210.786 280.067,212.953 280,215.5C 279.998,212.949 279.164,210.949 277.5,209.5 Z"/></g>
<g><path style="opacity:1" fill="#d6a044" d="M 285.5,208.5 C 286.067,210.698 286.067,213.031 285.5,215.5C 284.167,213.167 284.167,210.833 285.5,208.5 Z"/></g>
<g><path style="opacity:1" fill="#89979a" d="M 285.5,208.5 C 287.176,209.183 287.843,210.517 287.5,212.5C 288.248,214.735 289.081,214.402 290,211.5C 290.649,214.937 291.149,215.104 291.5,212C 291.316,210.624 290.649,209.791 289.5,209.5C 290.209,208.596 291.209,208.263 292.5,208.5C 292.5,210.833 292.5,213.167 292.5,215.5C 290.167,215.5 287.833,215.5 285.5,215.5C 286.067,213.031 286.067,210.698 285.5,208.5 Z"/></g>
<g><path style="opacity:1" fill="#e2a03b" d="M 289.5,209.5 C 290.649,209.791 291.316,210.624 291.5,212C 291.149,215.104 290.649,214.937 290,211.5C 289.081,214.402 288.248,214.735 287.5,212.5C 288.401,211.71 289.068,210.71 289.5,209.5 Z"/></g>
<g><path style="opacity:1" fill="#bda268" d="M 247.5,161.5 C 247.833,161.5 248.167,161.5 248.5,161.5C 248.5,179.167 248.5,196.833 248.5,214.5C 256.5,214.5 264.5,214.5 272.5,214.5C 272.5,212.833 272.5,211.167 272.5,209.5C 266.974,209.821 261.64,209.488 256.5,208.5C 262.167,208.5 267.833,208.5 273.5,208.5C 273.5,210.833 273.5,213.167 273.5,215.5C 264.833,215.5 256.167,215.5 247.5,215.5C 247.5,197.5 247.5,179.5 247.5,161.5 Z"/></g>
</svg>
