<?xml version="1.0" encoding="UTF-8"?>
<svg version="1.1" xmlns="http://www.w3.org/2000/svg" width="360" height="360">
<path d="M0 0 C118.8 0 237.6 0 360 0 C360 118.8 360 237.6 360 360 C241.2 360 122.4 360 0 360 C0 241.2 0 122.4 0 0 Z " fill="#16202A" transform="translate(0,0)"/>
<path d="M0 0 C1.28556793 -0.00563965 2.57113586 -0.0112793 3.8956604 -0.01708984 C5.31309566 -0.01320154 6.73053036 -0.00910522 8.14796448 -0.00482178 C9.6463386 -0.00753297 11.14471139 -0.01109463 12.64308167 -0.01544189 C16.70714171 -0.02455365 20.77110012 -0.02102644 24.83516192 -0.01468372 C29.09113 -0.00961653 33.34708944 -0.01431727 37.60305786 -0.01745605 C44.75101787 -0.02109399 51.89893653 -0.01630153 59.04689026 -0.0067749 C67.30560225 0.00410516 75.56421545 0.00058664 83.82292503 -0.01042771 C90.91776163 -0.01951046 98.01256853 -0.02078091 105.10740906 -0.01555037 C109.34298926 -0.01243557 113.57852306 -0.01200779 117.81410027 -0.01862335 C121.79745724 -0.02441039 125.78068717 -0.02037508 129.76403046 -0.00883484 C131.22410178 -0.00619534 132.68418384 -0.00694121 134.14425087 -0.01136017 C136.14092242 -0.01684495 138.13761739 -0.00873996 140.13427734 0 C141.25052711 0.00075405 142.36677687 0.0015081 143.51685238 0.002285 C149.89447938 0.51777958 153.47283238 2.42193164 157.63063049 7.25396729 C161.60043734 12.09751152 160.97387915 17.12006359 160.81813049 23.06646729 C160.80459534 24.04551025 160.79106018 25.02455322 160.77711487 26.03326416 C160.74188845 28.44040269 160.68808512 30.84725671 160.63063049 33.25396729 C157.66063049 33.25396729 154.69063049 33.25396729 151.63063049 33.25396729 C151.63063049 31.60396729 151.63063049 29.95396729 151.63063049 28.25396729 C97.84063049 28.25396729 44.05063049 28.25396729 -11.36936951 28.25396729 C-11.26624451 44.83646729 -11.16311951 61.41896729 -11.05686951 78.50396729 C-11.03197449 83.74046143 -11.00707947 88.97695557 -10.98143005 94.37213135 C-10.94486683 99.06498857 -10.94486683 99.06498857 -10.90435791 103.7578125 C-10.88820531 105.84843504 -10.87791897 107.93910789 -10.87225342 110.02978516 C-10.86253481 113.19625762 -10.83422017 116.36207153 -10.80174255 119.52838135 C-10.8038815 120.92609961 -10.8038815 120.92609961 -10.80606365 122.3520546 C-10.74839824 127.26871299 -10.74839824 127.26871299 -9.02984619 131.79931641 C-5.78792637 134.63938129 -2.4936036 134.37952937 1.61436462 134.38095093 C3.49027534 134.38518066 3.49027534 134.38518066 5.40408325 134.38949585 C6.79258742 134.38755147 8.18109145 134.38550329 9.56959534 134.38336182 C11.02988733 134.38471666 12.49017897 134.38649706 13.95046997 134.38867188 C17.91951822 134.39323716 21.88854053 134.39146014 25.85758924 134.38829279 C30.00993387 134.38576357 34.16227626 134.38810839 38.31462097 134.38967896 C45.29040425 134.39149941 52.26617695 134.38909801 59.24195862 134.38433838 C67.30521887 134.37890026 75.36845383 134.38065564 83.43171346 134.38616478 C90.35324074 134.39070452 97.27476041 134.39134211 104.1962887 134.38872612 C108.33069118 134.38716754 112.46508178 134.38695803 116.59948349 134.3902626 C120.48838673 134.39315365 124.37725742 134.3911429 128.26615715 134.38536835 C129.69278471 134.38404719 131.11941502 134.38442393 132.54604149 134.38663101 C134.49500302 134.3893679 136.44397054 134.38532564 138.39292908 134.38095093 C140.0283368 134.38038539 140.0283368 134.38038539 141.69678307 134.37980843 C144.52653955 134.25843204 146.9389708 134.14759328 149.63063049 133.25396729 C150.29063049 131.93396729 150.95063049 130.61396729 151.63063049 129.25396729 C154.60063049 129.25396729 157.57063049 129.25396729 160.63063049 129.25396729 C159.96272291 133.92932035 158.73473555 137.29269546 155.21910858 140.56967068 C148.56944561 145.45371365 141.56583722 144.95372594 133.62086487 144.8850708 C132.10558232 144.8902154 130.59030576 144.89750074 129.07504272 144.90675354 C124.97777538 144.92520735 120.881162 144.91236753 116.7839222 144.89266324 C112.48619507 144.87622534 108.1885077 144.88509677 103.89076233 144.8901825 C96.67487699 144.89469773 89.45925135 144.87886912 82.24342346 144.85089111 C73.91357274 144.81884172 65.58419028 144.81885678 57.25430632 144.83610588 C49.22492855 144.85199692 41.19572166 144.84522087 33.16635132 144.82816887 C29.75662662 144.8213154 26.34703958 144.82231324 22.93731689 144.82971382 C18.91846084 144.83740302 14.90013451 144.8251654 10.88136864 144.79786491 C9.41086079 144.79100747 7.94030322 144.79085467 6.46979713 144.79808044 C-9.45145866 144.86727073 -9.45145866 144.86727073 -15.91205597 138.80683231 C-19.78894345 134.49064035 -20.48997995 131.03398158 -20.5098114 125.41624451 C-20.51552155 124.4448201 -20.52123169 123.47339569 -20.52711487 122.47253418 C-20.52823273 121.41322693 -20.52935059 120.35391968 -20.53050232 119.26251221 C-20.53546722 118.14175797 -20.54043213 117.02100372 -20.54554749 115.86628723 C-20.5601621 112.15566394 -20.56696983 108.44508339 -20.57249451 104.73443604 C-20.57824635 102.15617369 -20.58400408 99.57791136 -20.58976746 96.99964905 C-20.59893242 92.282945 -20.60523366 87.56625803 -20.60826421 82.84954661 C-20.61274297 75.91793876 -20.63028576 68.9865283 -20.6592648 62.05498046 C-20.68352752 56.04179609 -20.69121051 50.02870476 -20.69293976 44.01546669 C-20.69596595 41.46181476 -20.70399329 38.90816365 -20.71712494 36.35454369 C-20.73419146 32.7807459 -20.73230341 29.20742803 -20.72581482 25.63360596 C-20.7350296 24.5803714 -20.74424438 23.52713684 -20.7537384 22.44198608 C-20.717029 15.98302293 -20.24638494 10.68909227 -15.93968201 5.54693604 C-10.61799616 1.47656551 -6.68764423 0.00451918 0 0 Z " fill="#21BBA0" transform="translate(90.36936950683594,107.74603271484375)"/>
<path d="M0 0 C56.76 0 113.52 0 172 0 C172 54.78 172 109.56 172 166 C171.67 166 171.34 166 171 166 C170.90203125 165.06542969 170.8040625 164.13085938 170.703125 163.16796875 C168.01002172 138.90182275 161.70299016 116.4969018 150 95 C149.67386719 94.38930664 149.34773437 93.77861328 149.01171875 93.14941406 C127.35083193 52.74020986 89.06831185 22.01919655 45.30615234 8.67431641 C39.24812704 6.90295648 33.15844555 5.37782172 27 4 C26.13761719 3.78601563 25.27523437 3.57203125 24.38671875 3.3515625 C16.39084473 1.49705727 8.17162417 1.36023401 0 1 C0 0.67 0 0.34 0 0 Z " fill="#FCFCFC" transform="translate(188,0)"/>
<path d="M0 0 C0.33 0 0.66 0 1 0 C1 54.78 1 109.56 1 166 C-53.78 166 -108.56 166 -165 166 C-165 165.67 -165 165.34 -165 165 C-164.44763672 164.93006836 -163.89527344 164.86013672 -163.32617188 164.78808594 C-151.31621013 163.24082077 -139.6417153 161.35748529 -128 158 C-126.81792969 157.66484375 -125.63585937 157.3296875 -124.41796875 156.984375 C-80.80360464 143.56457066 -43.73233816 112.36537317 -21.86328125 72.56640625 C-21.23833029 71.37962736 -20.61734453 70.19075336 -20 69 C-19.6704834 68.36690918 -19.3409668 67.73381836 -19.00146484 67.08154297 C-8.18048377 45.97260859 -2.07011363 23.59992076 0 0 Z " fill="#F9F9F9" transform="translate(359,194)"/>
<path d="M0 0 C0.33 0 0.66 0 1 0 C1.03738281 0.825 1.07476562 1.65 1.11328125 2.5 C1.84911417 15.42757442 4.10702951 27.64898907 8 40 C8.24830566 40.79067871 8.49661133 41.58135742 8.75244141 42.39599609 C12.46207319 53.97570644 16.99034049 64.60977952 22.98486328 75.18554688 C24.38843063 77.69428005 25.68248622 80.25776415 27 82.8125 C48.81804661 122.39496707 89.96751824 149.62854665 132.375 162.3125 C143.47032563 165.28352321 154.52233346 167.38016326 166 168 C166 168.33 166 168.66 166 169 C111.22 169 56.44 169 0 169 C0 113.23 0 57.46 0 0 Z " fill="#F8F8F8" transform="translate(0,191)"/>
<path d="M0 0 C54.78 0 109.56 0 166 0 C166 0.33 166 0.66 166 1 C165.41734375 1.06993164 164.8346875 1.13986328 164.234375 1.21191406 C116.3732781 7.06285791 71.89220652 28.04094885 41 66 C33.43047445 75.79385025 26.82508356 86.08618657 21 97 C20.48050781 97.94617188 19.96101563 98.89234375 19.42578125 99.8671875 C8.60541588 120.37192188 3.20425242 143.03629573 1 166 C0.67 166 0.34 166 0 166 C0 111.22 0 56.44 0 0 Z " fill="#F7F7F7" transform="translate(0,0)"/>
<path d="M0 0 C0.80308594 -0.02578125 1.60617188 -0.0515625 2.43359375 -0.078125 C3.13613281 0.03015625 3.83867187 0.1384375 4.5625 0.25 C6.5625 3.25 6.5625 3.25 6.625 6.6875 C7.16397933 10.27333436 7.16397933 10.27333436 9.484375 11.62890625 C13.88090615 13.76673012 13.88090615 13.76673012 18.65234375 13.97265625 C21.59424227 12.85966806 24.00364513 11.05282957 26.5625 9.25 C28.8725 11.56 31.1825 13.87 33.5625 16.25 C32.48848892 19.16517292 31.78439824 21.02810176 29.5625 23.25 C29.75934346 26.10518209 29.75934346 26.10518209 30.5625 29.25 C30.7275 30.3225 30.8925 31.395 31.0625 32.5 C32.2523016 35.39470028 32.2523016 35.39470028 34.66015625 36.03515625 C36.2855176 36.382896 37.92236341 36.68114768 39.56640625 36.92578125 C41.5625 37.25 41.5625 37.25 42.5625 38.25 C42.66073937 39.91429051 42.69223631 41.58281931 42.6875 43.25 C42.69136719 44.61125 42.69136719 44.61125 42.6953125 46 C42.5625 48.25 42.5625 48.25 41.5625 49.25 C40.04321962 49.32179964 38.52082518 49.33392007 37 49.3125 C36.17371094 49.30347656 35.34742188 49.29445312 34.49609375 49.28515625 C33.85800781 49.27355469 33.21992188 49.26195312 32.5625 49.25 C32.02717177 50.80759343 31.50984622 52.37138045 31 53.9375 C30.70996094 54.80761719 30.41992188 55.67773438 30.12109375 56.57421875 C29.50157979 59.54182059 29.7037853 61.36159601 30.5625 64.25 C32.03021271 66.51454073 32.03021271 66.51454073 33.5625 68.25 C32.12286361 71.60915158 30.43833411 73.96624938 27.5625 76.25 C24.81885249 76.16426102 23.72360022 75.38511631 21.625 73.625 C19.66110863 72.00695733 19.66110863 72.00695733 17.3125 72.4375 C15.95125 72.8396875 15.95125 72.8396875 14.5625 73.25 C13.12605991 73.60844129 11.68849352 73.96239047 10.25 74.3125 C9.033125 74.621875 7.81625 74.93125 6.5625 75.25 C6.583125 76.343125 6.60375 77.43625 6.625 78.5625 C6.5625 82.25 6.5625 82.25 5.5625 85.25 C1.9325 85.25 -1.6975 85.25 -5.4375 85.25 C-5.7675 81.95 -6.0975 78.65 -6.4375 75.25 C-13.33189152 72.33852489 -13.33189152 72.33852489 -20.4375 73.25 C-21.118125 73.78625 -21.79875 74.3225 -22.5 74.875 C-24.4375 76.25 -24.4375 76.25 -26.38671875 76.05859375 C-28.93393587 75.05426243 -29.70127496 73.95812159 -31.1875 71.6875 C-31.61546875 71.04683594 -32.0434375 70.40617187 -32.484375 69.74609375 C-32.79890625 69.25238281 -33.1134375 68.75867188 -33.4375 68.25 C-32.550625 67.445625 -31.66375 66.64125 -30.75 65.8125 C-29.2802431 64.22523255 -29.2802431 64.22523255 -28.4375 62.25 C-28.86450052 58.98926875 -30.08731747 56.22834382 -31.4375 53.25 C-31.9325 51.765 -31.9325 51.765 -32.4375 50.25 C-33.39462891 50.15912109 -33.39462891 50.15912109 -34.37109375 50.06640625 C-35.19738281 49.98261719 -36.02367187 49.89882812 -36.875 49.8125 C-37.69871094 49.73128906 -38.52242187 49.65007812 -39.37109375 49.56640625 C-41.4375 49.25 -41.4375 49.25 -42.4375 48.25 C-42.50955511 46.56391034 -42.52136068 44.87499341 -42.5 43.1875 C-42.49097656 42.26839844 -42.48195312 41.34929687 -42.47265625 40.40234375 C-42.46105469 39.69207031 -42.44945312 38.98179687 -42.4375 38.25 C-38.61429443 36.82741188 -35.52468695 36.00957724 -31.4375 36.25 C-31.31375 35.38375 -31.19 34.5175 -31.0625 33.625 C-30.4375 30.25 -30.4375 30.25 -29.0625 27.25 C-28.11570148 24.37062518 -28.11570148 24.37062518 -29.421875 22.5390625 C-30.95367612 20.655811 -30.95367612 20.655811 -33.4375 18.25 C-31.99504029 14.88426067 -30.354032 12.49989611 -27.4375 10.25 C-24.29553147 10.32854921 -22.91987086 10.76762914 -20.6875 13 C-18.53648853 14.52007787 -18.53648853 14.52007787 -16.29296875 13.77734375 C-14.70191209 13.22471502 -13.12260703 12.63679657 -11.55859375 12.01171875 C-9.4375 11.25 -9.4375 11.25 -6.4375 11.25 C-6.34662109 10.18458984 -6.34662109 10.18458984 -6.25390625 9.09765625 C-6.17011719 8.17855469 -6.08632812 7.25945312 -6 6.3125 C-5.91878906 5.39597656 -5.83757812 4.47945312 -5.75390625 3.53515625 C-5.20866846 -0.40267225 -3.62769639 0.06965177 0 0 Z " fill="#21BA9F" transform="translate(247.4375,145.75)"/>
<path d="M0 0 C4.46814523 3.37593195 7.04454968 6.83613168 8.8125 12.125 C9.84074278 20.22241189 9.57806172 27.20926821 4.75390625 33.9921875 C0.18822366 39.00800781 -4.11126789 41.67996959 -10.88671875 42.66015625 C-17.50454605 42.91696746 -23.16474196 42.82760097 -28.54296875 38.6796875 C-34.91031872 32.66019751 -38.13331475 27.85140771 -38.625 18.875 C-38.46394506 11.91174239 -36.27184866 6.1840152 -31.28515625 1.23828125 C-20.94912443 -6.95515664 -11.07826019 -6.51662364 0 0 Z " fill="#15202A" transform="translate(262.1875,169.875)"/>
<path d="M0 0 C3.96 0 7.92 0 12 0 C14.49436827 6.57033914 16.86193874 13.18065532 19.1875 19.8125 C19.55552734 20.84826172 19.92355469 21.88402344 20.30273438 22.95117188 C20.65013672 23.94310547 20.99753906 24.93503906 21.35546875 25.95703125 C21.82956177 27.30244995 21.82956177 27.30244995 22.31323242 28.67504883 C23 31 23 31 23 34 C19.7 34 16.4 34 13 34 C12.67 32.02 12.34 30.04 12 28 C8.37 28.33 4.74 28.66 1 29 C0.01 31.475 0.01 31.475 -1 34 C-3.97 34 -6.94 34 -10 34 C-9.37759112 29.79559661 -8.44399524 25.85545474 -7.1875 21.796875 C-6.83429688 20.6521875 -6.48109375 19.5075 -6.1171875 18.328125 C-5.74851562 17.14734375 -5.37984375 15.9665625 -5 14.75 C-4.44699219 12.955625 -4.44699219 12.955625 -3.8828125 11.125 C-1.14332217 2.28664435 -1.14332217 2.28664435 0 0 Z " fill="#F7F7F8" transform="translate(120,172)"/>
<path d="M0 0 C18.19230769 0 18.19230769 0 24.0625 4.625 C25.56753413 8.43775313 25.76611459 11.97441606 25 16 C23.28095248 19.06881816 21.19285833 21.40357084 18 23 C15.3276379 23.13415472 12.67749512 23.04318541 10 23 C10 26.96 10 30.92 10 35 C6.7 35 3.4 35 0 35 C0 23.45 0 11.9 0 0 Z " fill="#EDEEEE" transform="translate(149,172)"/>
<path d="M0 0 C25.08 0 50.16 0 76 0 C76 0.33 76 0.66 76 1 C75.41734375 1.06993164 74.8346875 1.13986328 74.234375 1.21191406 C55.5136202 3.5004969 38.62175826 7.48983382 21.01855469 14.24316406 C18.36949063 15.23640289 15.69216706 16.13128155 13 17 C13 16.34 13 15.68 13 15 C8.71 15 4.42 15 0 15 C0 10.05 0 5.1 0 0 Z " fill="#FBFBFB" transform="translate(90,0)"/>
<path d="M0 0 C4.06350836 1.01587709 5.24568393 1.80501712 8.3125 4.4375 C13.33044807 8.59157977 18.61154111 12.1594719 24.08520508 15.67358398 C28.89861215 18.7972243 28.89861215 18.7972243 30 21 C30.13415472 23.6723621 30.04318541 26.32250488 30 29 C25.05 29 20.1 29 15 29 C15 24.05 15 19.1 15 14 C10.05 14 5.1 14 0 14 C0 9.38 0 4.76 0 0 Z " fill="#EDEDED" transform="translate(60,316)"/>
<path d="M0 0 C2.22518586 2.87613576 4.16495604 5.83709033 6.0625 8.9375 C9.3048707 14.11416051 12.91078869 18.88252163 16.79907227 23.58374023 C19.36086012 26.77418159 20 27.73893967 20 32 C15.71 32 11.42 32 7 32 C7 27.05 7 22.1 7 17 C2.05 17 -2.9 17 -8 17 C-8 12.05 -8 7.1 -8 2 C-5.36 2 -2.72 2 0 2 C0 1.34 0 0.68 0 0 Z " fill="#EDEDED" transform="translate(23,268)"/>
<path d="M0 0 C4.95 0 9.9 0 15 0 C15 4.95 15 9.9 15 15 C19.95 15 24.9 15 30 15 C30 19.29 30 23.58 30 28 C29.01 28.33 28.02 28.66 27 29 C24.79296875 27.4453125 24.79296875 27.4453125 22.1875 25.125 C17.21106254 20.85567027 12.06469751 17.33980854 6.4206543 14.00830078 C4.89848941 13.08098779 3.44166085 12.04809796 2 11 C2 10.01 2 9.02 2 8 C1.34 8 0.68 8 0 8 C0 5.36 0 2.72 0 0 Z " fill="#EDEDED" transform="translate(270,15)"/>
<path d="M0 0 C4.29 0 8.58 0 13 0 C13 4.95 13 9.9 13 15 C17.95 15 22.9 15 28 15 C28 19.95 28 24.9 28 30 C20.62420382 30.49171975 20.62420382 30.49171975 18.0859375 28.4921875 C15.25996793 25.11584183 12.82167097 21.53192266 10.375 17.875 C9.40556499 16.43360321 8.43429046 14.99344146 7.4609375 13.5546875 C7.03603027 12.92030762 6.61112305 12.28592773 6.17333984 11.63232422 C4.96176809 9.85413743 4.96176809 9.85413743 3 8 C1.85179234 5.36587655 0.90883626 2.72650879 0 0 Z " fill="#EDEDED" transform="translate(317,60)"/>
<path d="M0 0 C2.97 0 5.94 0 9 0 C9 10.89 9 21.78 9 33 C6.03 33 3.06 33 0 33 C0 22.11 0 11.22 0 0 Z " fill="#F8F9F9" transform="translate(182,173)"/>
<path d="M0 0 C4.95 0 9.9 0 15 0 C15 4.62 15 9.24 15 14 C16.65 13.34 18.3 12.68 20 12 C20.99 12.33 21.98 12.66 23 13 C19.7 14.32 16.4 15.64 13 17 C13 16.34 13 15.68 13 15 C8.71 15 4.42 15 0 15 C0 10.05 0 5.1 0 0 Z " fill="#FDFDFD" transform="translate(90,0)"/>
<path d="M0 0 C4.95 0 9.9 0 15 0 C15.22786458 2.76692708 15.45572917 5.53385417 15.68359375 8.30078125 C15.91812559 11.09375599 15.91812559 11.09375599 17 14 C16.01 15.485 16.01 15.485 15 17 C14.67 16.67 14.34 16.34 14 16 C11.65012738 15.76472227 9.29443961 15.58613583 6.9375 15.4375 C4.648125 15.293125 2.35875 15.14875 0 15 C0 10.05 0 5.1 0 0 Z " fill="#FEFEFE" transform="translate(0,90)"/>
<path d="M0 0 C-0.99 0.495 -0.99 0.495 -2 1 C-2 5.62 -2 10.24 -2 15 C-6.95 15 -11.9 15 -17 15 C-17 10.05 -17 5.1 -17 0 C-14.9375 -0.185625 -12.875 -0.37125 -10.75 -0.5625 C-9.58984375 -0.66691406 -8.4296875 -0.77132813 -7.234375 -0.87890625 C-4.48128523 -0.98198087 -2.580018 -0.86213473 0 0 Z " fill="#FEFEFE" transform="translate(62,315)"/>
<path d="M0 0 C2.43375 0.185625 4.8675 0.37125 7.375 0.5625 C7.375 5.5125 7.375 10.4625 7.375 15.5625 C2.425 15.5625 -2.525 15.5625 -7.625 15.5625 C-7.625 11.2725 -7.625 6.9825 -7.625 2.5625 C-8.285 2.5625 -8.945 2.5625 -9.625 2.5625 C-9.625 1.9025 -9.625 1.2425 -9.625 0.5625 C-6.5292768 -0.9853616 -3.35995602 -0.26932026 0 0 Z " fill="#FEFEFE" transform="translate(352.625,254.4375)"/>
<path d="M0 0 C2.53798696 0.09095676 5.03326771 0.23715174 7.5625 0.4375 C11.2440625 0.7159375 11.2440625 0.7159375 15 1 C15 5.95 15 10.9 15 16 C10.05 16 5.1 16 0 16 C-0.185625 13.545625 -0.37125 11.09125 -0.5625 8.5625 C-0.62381104 7.78849854 -0.68512207 7.01449707 -0.74829102 6.21704102 C-0.87169543 4.48038342 -0.9376445 2.73991955 -1 1 C-0.67 0.67 -0.34 0.34 0 0 Z " fill="#FFFFFF" transform="translate(255,344)"/>
<path d="M0 0 C4.95 0 9.9 0 15 0 C15 4.95 15 9.9 15 15 C10.05 15 5.1 15 0 15 C0 10.05 0 5.1 0 0 Z " fill="#FFFFFF" transform="translate(345,345)"/>
<path d="M0 0 C4.95 0 9.9 0 15 0 C15 4.95 15 9.9 15 15 C10.05 15 5.1 15 0 15 C0 10.05 0 5.1 0 0 Z " fill="#EEEEEE" transform="translate(330,345)"/>
<path d="M0 0 C4.95 0 9.9 0 15 0 C15 4.95 15 9.9 15 15 C10.05 15 5.1 15 0 15 C0 10.05 0 5.1 0 0 Z " fill="#FFFFFF" transform="translate(315,345)"/>
<path d="M0 0 C4.95 0 9.9 0 15 0 C15 4.95 15 9.9 15 15 C10.05 15 5.1 15 0 15 C0 10.05 0 5.1 0 0 Z " fill="#EEEEEE" transform="translate(300,345)"/>
<path d="M0 0 C4.95 0 9.9 0 15 0 C15 4.95 15 9.9 15 15 C10.05 15 5.1 15 0 15 C0 10.05 0 5.1 0 0 Z " fill="#FFFFFF" transform="translate(285,345)"/>
<path d="M0 0 C4.95 0 9.9 0 15 0 C15 4.95 15 9.9 15 15 C10.05 15 5.1 15 0 15 C0 10.05 0 5.1 0 0 Z " fill="#EEEEEE" transform="translate(270,345)"/>
<path d="M0 0 C4.95 0 9.9 0 15 0 C15 4.95 15 9.9 15 15 C10.05 15 5.1 15 0 15 C0 10.05 0 5.1 0 0 Z " fill="#EEEEEE" transform="translate(90,345)"/>
<path d="M0 0 C4.95 0 9.9 0 15 0 C15 4.95 15 9.9 15 15 C10.05 15 5.1 15 0 15 C0 10.05 0 5.1 0 0 Z " fill="#FFFFFF" transform="translate(75,345)"/>
<path d="M0 0 C4.95 0 9.9 0 15 0 C15 4.95 15 9.9 15 15 C10.05 15 5.1 15 0 15 C0 10.05 0 5.1 0 0 Z " fill="#EEEEEE" transform="translate(60,345)"/>
<path d="M0 0 C4.95 0 9.9 0 15 0 C15 4.95 15 9.9 15 15 C10.05 15 5.1 15 0 15 C0 10.05 0 5.1 0 0 Z " fill="#FFFFFF" transform="translate(45,345)"/>
<path d="M0 0 C4.95 0 9.9 0 15 0 C15 4.95 15 9.9 15 15 C10.05 15 5.1 15 0 15 C0 10.05 0 5.1 0 0 Z " fill="#EEEEEE" transform="translate(30,345)"/>
<path d="M0 0 C4.95 0 9.9 0 15 0 C15 4.95 15 9.9 15 15 C10.05 15 5.1 15 0 15 C0 10.05 0 5.1 0 0 Z " fill="#FFFFFF" transform="translate(15,345)"/>
<path d="M0 0 C4.95 0 9.9 0 15 0 C15 4.95 15 9.9 15 15 C10.05 15 5.1 15 0 15 C0 10.05 0 5.1 0 0 Z " fill="#EEEEEE" transform="translate(0,345)"/>
<path d="M0 0 C4.95 0 9.9 0 15 0 C15 4.95 15 9.9 15 15 C10.05 15 5.1 15 0 15 C0 10.05 0 5.1 0 0 Z " fill="#EEEEEE" transform="translate(345,330)"/>
<path d="M0 0 C4.95 0 9.9 0 15 0 C15 4.95 15 9.9 15 15 C10.05 15 5.1 15 0 15 C0 10.05 0 5.1 0 0 Z " fill="#FFFFFF" transform="translate(330,330)"/>
<path d="M0 0 C4.95 0 9.9 0 15 0 C15 4.95 15 9.9 15 15 C10.05 15 5.1 15 0 15 C0 10.05 0 5.1 0 0 Z " fill="#EEEEEE" transform="translate(315,330)"/>
<path d="M0 0 C4.95 0 9.9 0 15 0 C15 4.95 15 9.9 15 15 C10.05 15 5.1 15 0 15 C0 10.05 0 5.1 0 0 Z " fill="#FFFFFF" transform="translate(300,330)"/>
<path d="M0 0 C4.95 0 9.9 0 15 0 C15 4.95 15 9.9 15 15 C10.05 15 5.1 15 0 15 C0 10.05 0 5.1 0 0 Z " fill="#EEEEEE" transform="translate(285,330)"/>
<path d="M0 0 C4.95 0 9.9 0 15 0 C15 4.95 15 9.9 15 15 C10.05 15 5.1 15 0 15 C0 10.05 0 5.1 0 0 Z " fill="#FFFFFF" transform="translate(60,330)"/>
<path d="M0 0 C4.95 0 9.9 0 15 0 C15 4.95 15 9.9 15 15 C10.05 15 5.1 15 0 15 C0 10.05 0 5.1 0 0 Z " fill="#EEEEEE" transform="translate(45,330)"/>
<path d="M0 0 C4.95 0 9.9 0 15 0 C15 4.95 15 9.9 15 15 C10.05 15 5.1 15 0 15 C0 10.05 0 5.1 0 0 Z " fill="#FFFFFF" transform="translate(30,330)"/>
<path d="M0 0 C4.95 0 9.9 0 15 0 C15 4.95 15 9.9 15 15 C10.05 15 5.1 15 0 15 C0 10.05 0 5.1 0 0 Z " fill="#EEEEEE" transform="translate(15,330)"/>
<path d="M0 0 C4.95 0 9.9 0 15 0 C15 4.95 15 9.9 15 15 C10.05 15 5.1 15 0 15 C0 10.05 0 5.1 0 0 Z " fill="#FFFFFF" transform="translate(0,330)"/>
<path d="M0 0 C4.95 0 9.9 0 15 0 C15 4.95 15 9.9 15 15 C10.05 15 5.1 15 0 15 C0 10.05 0 5.1 0 0 Z " fill="#FFFFFF" transform="translate(345,315)"/>
<path d="M0 0 C4.95 0 9.9 0 15 0 C15 4.95 15 9.9 15 15 C10.05 15 5.1 15 0 15 C0 10.05 0 5.1 0 0 Z " fill="#EEEEEE" transform="translate(330,315)"/>
<path d="M0 0 C4.95 0 9.9 0 15 0 C15 4.95 15 9.9 15 15 C10.05 15 5.1 15 0 15 C0 10.05 0 5.1 0 0 Z " fill="#FFFFFF" transform="translate(315,315)"/>
<path d="M0 0 C4.95 0 9.9 0 15 0 C15 4.95 15 9.9 15 15 C10.05 15 5.1 15 0 15 C0 10.05 0 5.1 0 0 Z " fill="#EEEEEE" transform="translate(30,315)"/>
<path d="M0 0 C4.95 0 9.9 0 15 0 C15 4.95 15 9.9 15 15 C10.05 15 5.1 15 0 15 C0 10.05 0 5.1 0 0 Z " fill="#FFFFFF" transform="translate(15,315)"/>
<path d="M0 0 C4.95 0 9.9 0 15 0 C15 4.95 15 9.9 15 15 C10.05 15 5.1 15 0 15 C0 10.05 0 5.1 0 0 Z " fill="#EEEEEE" transform="translate(0,315)"/>
<path d="M0 0 C4.95 0 9.9 0 15 0 C15 4.95 15 9.9 15 15 C10.05 15 5.1 15 0 15 C0 10.05 0 5.1 0 0 Z " fill="#EEEEEE" transform="translate(345,300)"/>
<path d="M0 0 C4.95 0 9.9 0 15 0 C15 4.95 15 9.9 15 15 C10.05 15 5.1 15 0 15 C0 10.05 0 5.1 0 0 Z " fill="#FFFFFF" transform="translate(330,300)"/>
<path d="M0 0 C4.95 0 9.9 0 15 0 C15 4.95 15 9.9 15 15 C10.05 15 5.1 15 0 15 C0 10.05 0 5.1 0 0 Z " fill="#EEEEEE" transform="translate(15,300)"/>
<path d="M0 0 C4.95 0 9.9 0 15 0 C15 4.95 15 9.9 15 15 C10.05 15 5.1 15 0 15 C0 10.05 0 5.1 0 0 Z " fill="#FFFFFF" transform="translate(0,300)"/>
<path d="M0 0 C4.95 0 9.9 0 15 0 C15 4.95 15 9.9 15 15 C10.05 15 5.1 15 0 15 C0 10.05 0 5.1 0 0 Z " fill="#FFFFFF" transform="translate(345,285)"/>
<path d="M0 0 C4.95 0 9.9 0 15 0 C15 4.95 15 9.9 15 15 C10.05 15 5.1 15 0 15 C0 10.05 0 5.1 0 0 Z " fill="#FFFFFF" transform="translate(15,285)"/>
<path d="M0 0 C4.95 0 9.9 0 15 0 C15 4.95 15 9.9 15 15 C10.05 15 5.1 15 0 15 C0 10.05 0 5.1 0 0 Z " fill="#EEEEEE" transform="translate(0,285)"/>
<path d="M0 0 C4.95 0 9.9 0 15 0 C15 4.95 15 9.9 15 15 C10.05 15 5.1 15 0 15 C0 10.05 0 5.1 0 0 Z " fill="#EEEEEE" transform="translate(345,270)"/>
<path d="M0 0 C4.95 0 9.9 0 15 0 C15 4.95 15 9.9 15 15 C10.05 15 5.1 15 0 15 C0 10.05 0 5.1 0 0 Z " fill="#FFFFFF" transform="translate(0,270)"/>
<path d="M0 0 C4.95 0 9.9 0 15 0 C15 4.95 15 9.9 15 15 C10.05 15 5.1 15 0 15 C0 10.05 0 5.1 0 0 Z " fill="#EEEEEE" transform="translate(345,90)"/>
<path d="M0 0 C4.95 0 9.9 0 15 0 C15 4.95 15 9.9 15 15 C10.05 15 5.1 15 0 15 C0 10.05 0 5.1 0 0 Z " fill="#FFFFFF" transform="translate(345,75)"/>
<path d="M0 0 C4.95 0 9.9 0 15 0 C15 4.95 15 9.9 15 15 C10.05 15 5.1 15 0 15 C0 10.05 0 5.1 0 0 Z " fill="#EEEEEE" transform="translate(0,75)"/>
<path d="M0 0 C4.95 0 9.9 0 15 0 C15 4.95 15 9.9 15 15 C10.05 15 5.1 15 0 15 C0 10.05 0 5.1 0 0 Z " fill="#EEEEEE" transform="translate(345,60)"/>
<path d="M0 0 C4.95 0 9.9 0 15 0 C15 4.95 15 9.9 15 15 C10.05 15 5.1 15 0 15 C0 10.05 0 5.1 0 0 Z " fill="#FFFFFF" transform="translate(330,60)"/>
<path d="M0 0 C4.95 0 9.9 0 15 0 C15 4.95 15 9.9 15 15 C10.05 15 5.1 15 0 15 C0 10.05 0 5.1 0 0 Z " fill="#EEEEEE" transform="translate(15,60)"/>
<path d="M0 0 C4.95 0 9.9 0 15 0 C15 4.95 15 9.9 15 15 C10.05 15 5.1 15 0 15 C0 10.05 0 5.1 0 0 Z " fill="#FFFFFF" transform="translate(0,60)"/>
<path d="M0 0 C4.95 0 9.9 0 15 0 C15 4.95 15 9.9 15 15 C10.05 15 5.1 15 0 15 C0 10.05 0 5.1 0 0 Z " fill="#FFFFFF" transform="translate(345,45)"/>
<path d="M0 0 C4.95 0 9.9 0 15 0 C15 4.95 15 9.9 15 15 C10.05 15 5.1 15 0 15 C0 10.05 0 5.1 0 0 Z " fill="#EEEEEE" transform="translate(330,45)"/>
<path d="M0 0 C4.95 0 9.9 0 15 0 C15 4.95 15 9.9 15 15 C10.05 15 5.1 15 0 15 C0 10.05 0 5.1 0 0 Z " fill="#FFFFFF" transform="translate(15,45)"/>
<path d="M0 0 C4.95 0 9.9 0 15 0 C15 4.95 15 9.9 15 15 C10.05 15 5.1 15 0 15 C0 10.05 0 5.1 0 0 Z " fill="#EEEEEE" transform="translate(0,45)"/>
<path d="M0 0 C4.95 0 9.9 0 15 0 C15 4.95 15 9.9 15 15 C10.05 15 5.1 15 0 15 C0 10.05 0 5.1 0 0 Z " fill="#EEEEEE" transform="translate(345,30)"/>
<path d="M0 0 C4.95 0 9.9 0 15 0 C15 4.95 15 9.9 15 15 C10.05 15 5.1 15 0 15 C0 10.05 0 5.1 0 0 Z " fill="#FFFFFF" transform="translate(330,30)"/>
<path d="M0 0 C4.95 0 9.9 0 15 0 C15 4.95 15 9.9 15 15 C10.05 15 5.1 15 0 15 C0 10.05 0 5.1 0 0 Z " fill="#EEEEEE" transform="translate(315,30)"/>
<path d="M0 0 C4.95 0 9.9 0 15 0 C15 4.95 15 9.9 15 15 C10.05 15 5.1 15 0 15 C0 10.05 0 5.1 0 0 Z " fill="#FFFFFF" transform="translate(30,30)"/>
<path d="M0 0 C4.95 0 9.9 0 15 0 C15 4.95 15 9.9 15 15 C10.05 15 5.1 15 0 15 C0 10.05 0 5.1 0 0 Z " fill="#EEEEEE" transform="translate(15,30)"/>
<path d="M0 0 C4.95 0 9.9 0 15 0 C15 4.95 15 9.9 15 15 C10.05 15 5.1 15 0 15 C0 10.05 0 5.1 0 0 Z " fill="#FFFFFF" transform="translate(0,30)"/>
<path d="M0 0 C4.95 0 9.9 0 15 0 C15 4.95 15 9.9 15 15 C10.05 15 5.1 15 0 15 C0 10.05 0 5.1 0 0 Z " fill="#FFFFFF" transform="translate(345,15)"/>
<path d="M0 0 C4.95 0 9.9 0 15 0 C15 4.95 15 9.9 15 15 C10.05 15 5.1 15 0 15 C0 10.05 0 5.1 0 0 Z " fill="#EEEEEE" transform="translate(330,15)"/>
<path d="M0 0 C4.95 0 9.9 0 15 0 C15 4.95 15 9.9 15 15 C10.05 15 5.1 15 0 15 C0 10.05 0 5.1 0 0 Z " fill="#FFFFFF" transform="translate(315,15)"/>
<path d="M0 0 C4.95 0 9.9 0 15 0 C15 4.95 15 9.9 15 15 C10.05 15 5.1 15 0 15 C0 10.05 0 5.1 0 0 Z " fill="#EEEEEE" transform="translate(300,15)"/>
<path d="M0 0 C4.95 0 9.9 0 15 0 C15 4.95 15 9.9 15 15 C10.05 15 5.1 15 0 15 C0 10.05 0 5.1 0 0 Z " fill="#FFFFFF" transform="translate(285,15)"/>
<path d="M0 0 C4.95 0 9.9 0 15 0 C15 4.95 15 9.9 15 15 C10.05 15 5.1 15 0 15 C0 10.05 0 5.1 0 0 Z " fill="#FFFFFF" transform="translate(45,15)"/>
<path d="M0 0 C4.95 0 9.9 0 15 0 C15 4.95 15 9.9 15 15 C10.05 15 5.1 15 0 15 C0 10.05 0 5.1 0 0 Z " fill="#EEEEEE" transform="translate(30,15)"/>
<path d="M0 0 C4.95 0 9.9 0 15 0 C15 4.95 15 9.9 15 15 C10.05 15 5.1 15 0 15 C0 10.05 0 5.1 0 0 Z " fill="#FFFFFF" transform="translate(15,15)"/>
<path d="M0 0 C4.95 0 9.9 0 15 0 C15 4.95 15 9.9 15 15 C10.05 15 5.1 15 0 15 C0 10.05 0 5.1 0 0 Z " fill="#EEEEEE" transform="translate(0,15)"/>
<path d="M0 0 C4.95 0 9.9 0 15 0 C15 4.95 15 9.9 15 15 C10.05 15 5.1 15 0 15 C0 10.05 0 5.1 0 0 Z " fill="#EEEEEE" transform="translate(345,0)"/>
<path d="M0 0 C4.95 0 9.9 0 15 0 C15 4.95 15 9.9 15 15 C10.05 15 5.1 15 0 15 C0 10.05 0 5.1 0 0 Z " fill="#FFFFFF" transform="translate(330,0)"/>
<path d="M0 0 C4.95 0 9.9 0 15 0 C15 4.95 15 9.9 15 15 C10.05 15 5.1 15 0 15 C0 10.05 0 5.1 0 0 Z " fill="#EEEEEE" transform="translate(315,0)"/>
<path d="M0 0 C4.95 0 9.9 0 15 0 C15 4.95 15 9.9 15 15 C10.05 15 5.1 15 0 15 C0 10.05 0 5.1 0 0 Z " fill="#FFFFFF" transform="translate(300,0)"/>
<path d="M0 0 C4.95 0 9.9 0 15 0 C15 4.95 15 9.9 15 15 C10.05 15 5.1 15 0 15 C0 10.05 0 5.1 0 0 Z " fill="#EEEEEE" transform="translate(285,0)"/>
<path d="M0 0 C4.95 0 9.9 0 15 0 C15 4.95 15 9.9 15 15 C10.05 15 5.1 15 0 15 C0 10.05 0 5.1 0 0 Z " fill="#FFFFFF" transform="translate(270,0)"/>
<path d="M0 0 C4.95 0 9.9 0 15 0 C15 4.95 15 9.9 15 15 C10.05 15 5.1 15 0 15 C0 10.05 0 5.1 0 0 Z " fill="#EEEEEE" transform="translate(255,0)"/>
<path d="M0 0 C4.95 0 9.9 0 15 0 C15 4.95 15 9.9 15 15 C10.05 15 5.1 15 0 15 C0 10.05 0 5.1 0 0 Z " fill="#EEEEEE" transform="translate(75,0)"/>
<path d="M0 0 C4.95 0 9.9 0 15 0 C15 4.95 15 9.9 15 15 C10.05 15 5.1 15 0 15 C0 10.05 0 5.1 0 0 Z " fill="#FFFFFF" transform="translate(60,0)"/>
<path d="M0 0 C4.95 0 9.9 0 15 0 C15 4.95 15 9.9 15 15 C10.05 15 5.1 15 0 15 C0 10.05 0 5.1 0 0 Z " fill="#EEEEEE" transform="translate(45,0)"/>
<path d="M0 0 C4.95 0 9.9 0 15 0 C15 4.95 15 9.9 15 15 C10.05 15 5.1 15 0 15 C0 10.05 0 5.1 0 0 Z " fill="#FFFFFF" transform="translate(30,0)"/>
<path d="M0 0 C4.95 0 9.9 0 15 0 C15 4.95 15 9.9 15 15 C10.05 15 5.1 15 0 15 C0 10.05 0 5.1 0 0 Z " fill="#FFFFFF" transform="translate(0,0)"/>
<path d="M0 0 C3.61328125 0.03255208 7.2265625 0.06510417 10.83984375 0.09765625 C10.83984375 5.04765625 10.83984375 9.99765625 10.83984375 15.09765625 C5.88984375 15.09765625 0.93984375 15.09765625 -4.16015625 15.09765625 C-4.2578125 4.2578125 -4.2578125 4.2578125 -4.16015625 1.09765625 C-3.16015625 0.09765625 -3.16015625 0.09765625 0 0 Z " fill="#EEEEEE" transform="translate(304.16015625,314.90234375)"/>
<path d="M0 0 C3.61328125 0.03255208 7.2265625 0.06510417 10.83984375 0.09765625 C10.83984375 5.04765625 10.83984375 9.99765625 10.83984375 15.09765625 C5.88984375 15.09765625 0.93984375 15.09765625 -4.16015625 15.09765625 C-4.2578125 4.2578125 -4.2578125 4.2578125 -4.16015625 1.09765625 C-3.16015625 0.09765625 -3.16015625 0.09765625 0 0 Z " fill="#EEEEEE" transform="translate(319.16015625,299.90234375)"/>
<path d="M0 0 C4.95 0 9.9 0 15 0 C15.09765625 10.83984375 15.09765625 10.83984375 15 14 C14 15 14 15 10.83984375 15.09765625 C7.2265625 15.06510417 3.61328125 15.03255208 0 15 C0 10.05 0 5.1 0 0 Z " fill="#EEEEEE" transform="translate(30,45)"/>
<path d="M0 0 C4.95 0 9.9 0 15 0 C15.09765625 10.83984375 15.09765625 10.83984375 15 14 C14 15 14 15 10.83984375 15.09765625 C7.2265625 15.06510417 3.61328125 15.03255208 0 15 C0 10.05 0 5.1 0 0 Z " fill="#EEEEEE" transform="translate(45,30)"/>
<path d="M0 0 C0.33 0 0.66 0 1 0 C1.03738281 0.825 1.07476562 1.65 1.11328125 2.5 C1.79986882 14.56240127 3.61150399 26.27228233 7.30078125 37.80859375 C8.37605293 41.17857929 9.2458195 44.54333938 10 48 C9.505 48.495 9.505 48.495 9 49 C6.03 49 3.06 49 0 49 C0 32.83 0 16.66 0 0 Z " fill="#E8E8E9" transform="translate(0,191)"/>
<path d="M0 0 C17.16 0 34.32 0 52 0 C52 2.97 52 5.94 52 9 C46.1791021 8.58422158 40.70893177 7.51417578 35.0625 6.0625 C34.3605249 5.88323975 33.6585498 5.70397949 32.93530273 5.51928711 C30.95676118 5.01327747 28.97837582 4.50665722 27 4 C18.09123212 1.74660577 9.14443737 1.40311905 0 1 C0 0.67 0 0.34 0 0 Z " fill="#EBEBEC" transform="translate(188,0)"/>
<path d="M0 0 C1.0703125 2.36328125 1.0703125 2.36328125 2.125 5.3125 C2.47820313 6.27800781 2.83140625 7.24351562 3.1953125 8.23828125 C4 11 4 11 4 15 C-0.95 15 -5.9 15 -11 15 C-11 10.05 -11 5.1 -11 0 C-2.25 -1.125 -2.25 -1.125 0 0 Z " fill="#FCFCFC" transform="translate(11,240)"/>
<path d="M0 0 C5.83813784 0.41700985 11.33470547 1.48825392 17 2.9375 C17.70092773 3.11676025 18.40185547 3.29602051 19.12402344 3.48071289 C21.08328805 3.9847933 23.04167388 4.49228582 25 5 C31.97551158 6.79608981 38.81052654 7.53773267 46 8 C46 8.33 46 8.66 46 9 C30.82 9 15.64 9 0 9 C0 6.03 0 3.06 0 0 Z " fill="#EBECEC" transform="translate(120,351)"/>
<path d="M0 0 C1.45116211 -0.01836914 1.45116211 -0.01836914 2.93164062 -0.03710938 C4.32479492 -0.04000977 4.32479492 -0.04000977 5.74609375 -0.04296875 C7.02311157 -0.04913208 7.02311157 -0.04913208 8.32592773 -0.05541992 C10.5625 0.1875 10.5625 0.1875 13.5625 2.1875 C13.1875 4.625 13.1875 4.625 12.5625 7.1875 C10.13358818 8.40195591 8.55530557 8.31674198 5.84375 8.3203125 C4.91175781 8.32160156 3.97976562 8.32289062 3.01953125 8.32421875 C2.04371094 8.32035156 1.06789062 8.31648438 0.0625 8.3125 C-1.40123047 8.31830078 -1.40123047 8.31830078 -2.89453125 8.32421875 C-4.29251953 8.32228516 -4.29251953 8.32228516 -5.71875 8.3203125 C-6.57533203 8.31918457 -7.43191406 8.31805664 -8.31445312 8.31689453 C-10.4375 8.1875 -10.4375 8.1875 -12.4375 7.1875 C-12.4375 5.2075 -12.4375 3.2275 -12.4375 1.1875 C-8.68151541 -0.6904923 -4.13276018 0.00274238 0 0 Z " fill="#172830" transform="translate(211.4375,118.8125)"/>
<path d="M0 0 C2.97 0 5.94 0 9 0 C9 15.18 9 30.36 9 46 C8.67 46 8.34 46 8 46 C7.85304688 44.59814453 7.85304688 44.59814453 7.703125 43.16796875 C6.82859958 35.31950797 5.62911029 27.60420646 4 19.875 C3.8340332 19.08246826 3.66806641 18.28993652 3.49707031 17.47338867 C2.57197549 13.20459403 1.39368032 9.14404061 0 5 C-0.125 2.125 -0.125 2.125 0 0 Z " fill="#EBECEC" transform="translate(351,120)"/>
<path d="M0 0 C0 4.95 0 9.9 0 15 C-4.95 15 -9.9 15 -15 15 C-15.36911942 6.51025332 -15.36911942 6.51025332 -13.8046875 4.34765625 C-11.61720158 2.71414404 -9.47626022 1.7520438 -6.9375 0.75 C-6.05964844 0.39421875 -5.18179688 0.0384375 -4.27734375 -0.328125 C-2 -1 -2 -1 0 0 Z " fill="#EDEDED" transform="translate(255,345)"/>
<path d="M0 0 C4.62 0 9.24 0 14 0 C15.08626944 4.34507774 14.83865592 5.23756163 13.1875 9.1875 C12.83042969 10.06792969 12.47335937 10.94835937 12.10546875 11.85546875 C11 14 11 14 9 15 C5.99525503 15.13559318 3.00931153 15.04299016 0 15 C0 10.05 0 5.1 0 0 Z " fill="#EDEDED" transform="translate(0,105)"/>
<path d="M0 0 C3.03866799 -0.41137202 5.92159703 -0.13193156 9 0 C9 4.95 9 9.9 9 15 C3.72 15 -1.56 15 -7 15 C-5.15789147 9.22247778 -3.37300646 5.0595097 0 0 Z " fill="#EDEDED" transform="translate(351,240)"/>
<path d="M0 0 C4.95 0 9.9 0 15 0 C15.125 8.75 15.125 8.75 14 11 C9.38196924 12.91479324 4.92746499 13.49026224 0 14 C0 9.38 0 4.76 0 0 Z " fill="#EDEDED" transform="translate(105,0)"/>
<path d="M0 0 C1.65 1.32 3.3 2.64 5 4 C5.845625 4.474375 6.69125 4.94875 7.5625 5.4375 C10.38419119 7.24627641 12.03559878 9.30804277 14 12 C13 13 13 13 10.05859375 13.09765625 C6.70572917 13.06510417 3.35286458 13.03255208 0 13 C0 8.71 0 4.42 0 0 Z " fill="#EEEEEE" transform="translate(45,302)"/>
<path d="M0 0 C4.29 0 8.58 0 13 0 C13 4.29 13 8.58 13 13 C8.10400219 8.98528179 4.01471821 4.89599781 0 0 Z " fill="#EEEEEE" transform="translate(302,45)"/>
<path d="M0 0 C0.33 0 0.66 0 1 0 C1.03738281 0.825 1.07476562 1.65 1.11328125 2.5 C1.57890108 10.68030127 2.70498079 18.39703729 4.37890625 26.40625 C4.94758829 29.6967373 5.11814557 32.67137685 5 36 C4.67 35.34 4.34 34.68 4 34 C2.68 34 1.36 34 0 34 C0 22.78 0 11.56 0 0 Z " fill="#F3F3F4" transform="translate(0,191)"/>
<path d="M0 0 C5.61 0 11.22 0 17 0 C17 2.64 17 5.28 17 8 C17.66 8 18.32 8 19 8 C18.67 8.66 18.34 9.32 18 10 C12.06 7.03 6.12 4.06 0 1 C0 0.67 0 0.34 0 0 Z " fill="#F5F5F5" transform="translate(253,15)"/>
<path d="M0 0 C4.55315948 0.61811534 8.28459767 2.46765893 12.3125 4.5625 C13.28026367 5.0565332 13.28026367 5.0565332 14.26757812 5.56054688 C15.84785228 6.36824255 17.42432105 7.18337613 19 8 C19 8.33 19 8.66 19 9 C13.39 9 7.78 9 2 9 C2 6.36 2 3.72 2 1 C1.34 0.67 0.68 0.34 0 0 Z " fill="#F6F6F6" transform="translate(88,336)"/>
<path d="M0 0 C0.33 0.66 0.66 1.32 1 2 C3.64 2 6.28 2 9 2 C9 7.61 9 13.22 9 19 C6.48963378 15.65284504 4.67438298 12.64747424 2.8125 8.9375 C2.28269531 7.89464844 1.75289063 6.85179688 1.20703125 5.77734375 C0 3 0 3 0 0 Z " fill="#F6F6F6" transform="translate(336,88)"/>
<path d="M0 0 C0 1.65 0 3.3 0 5 C-10.23 5 -20.46 5 -31 5 C-31 4.67 -31 4.34 -31 4 C-30.39003174 3.91435791 -29.78006348 3.82871582 -29.15161133 3.74047852 C-26.37169549 3.34930936 -23.59209736 2.95592556 -20.8125 2.5625 C-19.37293945 2.36043945 -19.37293945 2.36043945 -17.90429688 2.15429688 C-16.97294922 2.02216797 -16.04160156 1.89003906 -15.08203125 1.75390625 C-14.22843018 1.63345947 -13.3748291 1.5130127 -12.49536133 1.38891602 C-10.77575874 1.12090634 -9.0628535 0.80730515 -7.3581543 0.45678711 C-4.85375308 -0.02832881 -2.54460483 -0.072703 0 0 Z " fill="#EDEDEE" transform="translate(225,355)"/>
<path d="M0 0 C6.35849044 0.40883695 12.43379665 0.99655387 18.62109375 2.5234375 C23.35453784 3.47168082 28.18930186 3.69068269 33 4 C33 4.33 33 4.66 33 5 C22.77 5 12.54 5 2 5 C2 3.68 2 2.36 2 1 C1.34 0.67 0.68 0.34 0 0 Z " fill="#F7F7F7" transform="translate(133,355)"/>
<path d="M0 0 C0.33 0.66 0.66 1.32 1 2 C2.32 2 3.64 2 5 2 C5 12.23 5 22.46 5 33 C4.67 33 4.34 33 4 33 C3.87882812 31.97261719 3.75765625 30.94523437 3.6328125 29.88671875 C2.86662393 23.51517476 2.09571389 17.17911532 0.875 10.875 C0.16377828 7.19109376 -0.20371732 3.76877038 0 0 Z " fill="#F7F7F7" transform="translate(355,133)"/>
<path d="M0 0 C2.29924199 3.06565599 3.99222593 5.68722461 5.6875 9.0625 C6.12449219 9.91972656 6.56148437 10.77695312 7.01171875 11.66015625 C8 14 8 14 8 17 C5.36 17 2.72 17 0 17 C0 11.39 0 5.78 0 0 Z " fill="#F4F5F5" transform="translate(15,253)"/>
<path d="M0 0 C0.33 0 0.66 0 1 0 C1 10.23 1 20.46 1 31 C-0.32 31 -1.64 31 -3 31 C-4.11764185 26.14198344 -3.72825957 22.58814745 -2.625 17.75 C-1.33097425 11.84623558 -0.41160651 6.03216434 0 0 Z " fill="#EBEBEC" transform="translate(359,194)"/>
<path d="M0 0 C0.66 0.33 1.32 0.66 2 1 C2 3.64 2 6.28 2 9 C-0.12472576 9.05386629 -2.24983652 9.09273071 -4.375 9.125 C-6.15003906 9.15980469 -6.15003906 9.15980469 -7.9609375 9.1953125 C-11 9 -11 9 -13 7 C-10.88002166 5.80266012 -8.75486324 4.61701287 -6.625 3.4375 C-6.02171875 3.09525391 -5.4184375 2.75300781 -4.796875 2.40039062 C-3.23021759 1.53872905 -1.61709138 0.76281817 0 0 Z " fill="#E6E7E7" transform="translate(268,336)"/>
<path d="M0 0 C0.99 0 1.98 0 3 0 C3 4.29 3 8.58 3 13 C-1.455 13.495 -1.455 13.495 -6 14 C-5.12167314 10.48669257 -4.07289018 7.9369142 -2.4375 4.75 C-1.75494141 3.41195313 -1.75494141 3.41195313 -1.05859375 2.046875 C-0.70925781 1.37140625 -0.35992187 0.6959375 0 0 Z " fill="#E8E8E9" transform="translate(342,257)"/>
<path d="M0 0 C1.32 0 2.64 0 4 0 C4.17387838 7.00584959 3.5176452 13.63609505 2.5 20.5625 C2.35691406 21.57119141 2.21382813 22.57988281 2.06640625 23.61914062 C1.7164815 26.08027802 1.36091674 28.5404548 1 31 C0.67 31 0.34 31 0 31 C0 20.77 0 10.54 0 0 Z " fill="#EEEEEE" transform="translate(0,135)"/>
<path d="M0 0 C4.29 0 8.58 0 13 0 C13 0.99 13 1.98 13 3 C11.21289414 3.86366822 9.4201535 4.71568594 7.625 5.5625 C6.62726563 6.03816406 5.62953125 6.51382812 4.6015625 7.00390625 C3.74304688 7.33261719 2.88453125 7.66132813 2 8 C1.34 7.67 0.68 7.34 0 7 C0 4.69 0 2.38 0 0 Z " fill="#E9EAEA" transform="translate(90,15)"/>
<path d="M0 0 C10.23 0 20.46 0 31 0 C31 0.33 31 0.66 31 1 C27.14674943 1.50723149 23.29227297 2.00448199 19.4375 2.5 C17.80844727 2.71462891 17.80844727 2.71462891 16.14648438 2.93359375 C10.72018862 3.62631236 5.47091369 4.18838153 0 4 C0 2.68 0 1.36 0 0 Z " fill="#EFEFEF" transform="translate(135,0)"/>
<path d="M0 0 C2.31 0 4.62 0 7 0 C8 3 8 3 7.00390625 5.48046875 C6.52824219 6.37378906 6.05257813 7.26710938 5.5625 8.1875 C5.08941406 9.08855469 4.61632812 9.98960938 4.12890625 10.91796875 C3.75636719 11.60503906 3.38382813 12.29210937 3 13 C2.01 13 1.02 13 0 13 C0 8.71 0 4.42 0 0 Z " fill="#E9E9E9" transform="translate(15,90)"/>
<path d="M0 0 C0.33 0 0.66 0 1 0 C1.50471197 1.76949612 2.00360685 3.54065223 2.5 5.3125 C2.7784375 6.29863281 3.056875 7.28476563 3.34375 8.30078125 C4 11 4 11 4 14 C1.69 14 -0.62 14 -3 14 C-2.28547412 9.23649415 -1.20465156 4.65798604 0 0 Z " fill="#2A323B" transform="translate(126,179)"/>
<path d="M0 0 C1.67542976 0.28604898 3.34385343 0.61781233 5 1 C5 2.98 5 4.96 5 7 C2.625 7.625 2.625 7.625 0 8 C-0.66 7.34 -1.32 6.68 -2 6 C-1.44444444 1.44444444 -1.44444444 1.44444444 0 0 Z " fill="#142029" transform="translate(231,119)"/>
<path d="M0 0 C1.66611905 -0.042721 3.33382885 -0.04063832 5 0 C6 1 6 1 6.1875 3.4375 C6 6 6 6 4 8 C2.68 8 1.36 8 0 8 C0 5.36 0 2.72 0 0 Z " fill="#2C333D" transform="translate(158,180)"/>
<path d="M0 0 C3.17880913 2.11920609 3.54119613 2.68381169 4.82421875 6.0625 C5.13037109 6.85914062 5.43652344 7.65578125 5.75195312 8.4765625 C6.06068359 9.30929688 6.36941406 10.14203125 6.6875 11 C7.00783203 11.83273438 7.32816406 12.66546875 7.65820312 13.5234375 C10 19.694996 10 19.694996 10 22 C9.34 22 8.68 22 8 22 C7.03722741 19.64756508 6.07971502 17.29320381 5.125 14.9375 C4.85558594 14.28072266 4.58617187 13.62394531 4.30859375 12.94726562 C2.58610477 8.68305509 1.19017019 4.44291687 0 0 Z " fill="#202A33" transform="translate(341,102)"/>
</svg>
