<?xml version="1.0" encoding="UTF-8"?>
<svg version="1.1" xmlns="http://www.w3.org/2000/svg" width="350" height="344">
<path d="M0 0 C0.78095032 -0.00705963 1.56190063 -0.01411926 2.36651611 -0.02139282 C34.93937573 -0.24908173 34.93937573 -0.24908173 48.57421875 3.203125 C49.41645996 3.41243652 50.25870117 3.62174805 51.12646484 3.83740234 C90.60342892 13.88983526 125.39439598 34.94147708 150.57421875 67.203125 C151.74984375 68.69392578 151.74984375 68.69392578 152.94921875 70.21484375 C175.21285317 99.36543425 186.03405905 135.2719675 185.94921875 171.640625 C185.94900726 172.47806244 185.94879578 173.31549988 185.94857788 174.17831421 C185.91491778 187.55381855 184.97009781 200.21395734 181.57421875 213.203125 C181.3922998 213.94675293 181.21038086 214.69038086 181.02294922 215.45654297 C178.18645593 226.93686298 173.72922205 237.58318865 168.57421875 248.203125 C168.25050293 248.87118164 167.92678711 249.53923828 167.59326172 250.22753906 C148.34409981 289.35217013 112.34167757 320.17640669 71.36914062 334.68261719 C55.12283013 340.12758014 38.35762915 344.30244853 21.1484375 344.40625 C20.36748718 344.41330963 19.58653687 344.42036926 18.78192139 344.42764282 C-13.79093823 344.65533173 -13.79093823 344.65533173 -27.42578125 341.203125 C-28.26802246 340.99381348 -29.11026367 340.78450195 -29.97802734 340.56884766 C-69.45499142 330.51641474 -104.24595848 309.46477292 -129.42578125 277.203125 C-130.20953125 276.20925781 -130.99328125 275.21539062 -131.80078125 274.19140625 C-154.06441567 245.04081575 -164.88562155 209.1342825 -164.80078125 172.765625 C-164.80056976 171.92818756 -164.80035828 171.09075012 -164.80014038 170.22793579 C-164.76648028 156.85243145 -163.82166031 144.19229266 -160.42578125 131.203125 C-160.2438623 130.45949707 -160.06194336 129.71586914 -159.87451172 128.94970703 C-157.03801843 117.46938702 -152.58078455 106.82306135 -147.42578125 96.203125 C-146.94020752 95.20104004 -146.94020752 95.20104004 -146.44482422 94.17871094 C-127.19566231 55.05407987 -91.19324007 24.22984331 -50.22070312 9.72363281 C-33.97439263 4.27866986 -17.20919165 0.10380147 0 0 Z " fill="#2B2E3A" transform="translate(164.42578125,-0.203125)"/>
<path d="M0 0 C0.99 0.33 1.98 0.66 3 1 C4.2109375 3.625 4.2109375 3.625 5.375 7 C5.8184375 8.17304687 6.261875 9.34609375 6.71875 10.5546875 C7.48297151 12.60969778 8.22177459 14.67488303 8.90625 16.7578125 C9.99850572 19.42679221 10.87479606 21.03451911 13 23 C17.2344643 24.47215889 21.49998784 25.09786135 25.92089844 25.69628906 C44.73239488 28.44423429 60.48276272 36.04426033 73.125 50.4375 C75 53 75 53 75 55 C74.31711914 55.12004395 73.63423828 55.24008789 72.93066406 55.36376953 C59.23389877 57.8025738 45.90815954 60.60353912 32.65625 64.86328125 C29 66 29 66 27 66 C27.33 66.99 27.66 67.98 28 69 C29.46219414 89.75578439 25.31482025 108.25616703 17.8125 127.4375 C17.43786621 128.40502197 17.43786621 128.40502197 17.05566406 129.39208984 C15.24361632 133.87819184 15.24361632 133.87819184 13 135 C-5.97481302 134.91245761 -26.73296122 132.07803561 -42 120 C-46.0192448 115.35972605 -47.4612011 112.54274552 -47.421875 106.45703125 C-46.67641341 102.11540772 -44.03361196 99.07789827 -41 96 C-39.515 95.01 -39.515 95.01 -38 94 C-39.81313137 97.77735701 -41.91497662 101.36816049 -44 105 C-42.80761719 104.6390625 -41.61523438 104.278125 -40.38671875 103.90625 C-38.82037676 103.43728533 -37.25396695 102.96854711 -35.6875 102.5 C-34.50897461 102.14228516 -34.50897461 102.14228516 -33.30664062 101.77734375 C-32.54931641 101.55175781 -31.79199219 101.32617188 -31.01171875 101.09375 C-30.31522217 100.88427734 -29.61872559 100.67480469 -28.90112305 100.45898438 C-27 100 -27 100 -24 100 C-24.99 96.04 -25.98 92.08 -27 88 C-29.97 88.99 -29.97 88.99 -33 90 C-29.83533055 86.20239666 -26.65828586 82.64251532 -23.0625 79.25 C-15.33904764 71.63011884 -8.66429052 61.4622114 -8.54101562 50.37695312 C-8.54810547 49.61318359 -8.55519531 48.84941406 -8.5625 48.0625 C-8.54251953 47.30259766 -8.52253906 46.54269531 -8.50195312 45.75976562 C-8.50855302 38.03128956 -11.04512199 32.73713163 -16.48828125 27.296875 C-18.40733153 25.48697442 -20.35461014 23.71172556 -22.30664062 21.9375 C-23.23186523 21.06351563 -23.23186523 21.06351563 -24.17578125 20.171875 C-24.74208252 19.6572168 -25.30838379 19.14255859 -25.8918457 18.61230469 C-27 17 -27 17 -26.77172852 14.89453125 C-25.80481537 12.52083747 -24.72812232 11.68757728 -22.625 10.25 C-22.01914063 9.82203125 -21.41328125 9.3940625 -20.7890625 8.953125 C-19 8 -19 8 -16 8 C-16 8.66 -16 9.32 -16 10 C-15.0925 9.95875 -14.185 9.9175 -13.25 9.875 C-7.40165541 9.86299108 -0.26683648 10.36658176 5 13 C4.7834375 12.45730469 4.566875 11.91460937 4.34375 11.35546875 C4.0653125 10.64003906 3.786875 9.92460938 3.5 9.1875 C3.2215625 8.47980469 2.943125 7.77210937 2.65625 7.04296875 C2 5 2 5 2 2 C0.68 1.67 -0.64 1.34 -2 1 C-1.34 0.67 -0.68 0.34 0 0 Z " fill="#9E1E23" transform="translate(188,62)"/>
<path d="M0 0 C0.66 0 1.32 0 2 0 C8.44303069 19.32909208 -0.12059368 43.36939858 -7.1875 61.4375 C-7.43725586 62.08251465 -7.68701172 62.7275293 -7.94433594 63.39208984 C-9.75638368 67.87819184 -9.75638368 67.87819184 -12 69 C-30.97481302 68.91245761 -51.73296122 66.07803561 -67 54 C-71.0192448 49.35972605 -72.4612011 46.54274552 -72.421875 40.45703125 C-71.67641341 36.11540772 -69.03361196 33.07789827 -66 30 C-65.01 29.34 -64.02 28.68 -63 28 C-64.81313137 31.77735701 -66.91497662 35.36816049 -69 39 C-67.21142578 38.45859375 -67.21142578 38.45859375 -65.38671875 37.90625 C-63.82037676 37.43728533 -62.25396695 36.96854711 -60.6875 36.5 C-59.90181641 36.26152344 -59.11613281 36.02304688 -58.30664062 35.77734375 C-57.54931641 35.55175781 -56.79199219 35.32617188 -56.01171875 35.09375 C-55.31522217 34.88427734 -54.61872559 34.67480469 -53.90112305 34.45898438 C-52 34 -52 34 -49 34 C-49.33 32.96875 -49.66 31.9375 -50 30.875 C-50.9715192 27.51573291 -51.17116771 24.50893798 -51 21 C-50.01 20.67 -49.02 20.34 -48 20 C-47.34 22.97 -46.68 25.94 -46 29 C-45.34 29 -44.68 29 -44 29 C-41.03 23.72 -38.06 18.44 -35 13 C-34.34 13 -33.68 13 -33 13 C-33.60266785 17.50727647 -35.36599794 20.8587963 -37.5625 24.8125 C-37.89185547 25.40998047 -38.22121094 26.00746094 -38.56054688 26.62304688 C-39.36773267 28.08533998 -40.18304917 29.5431399 -41 31 C-39.79601562 30.566875 -38.59203125 30.13375 -37.3515625 29.6875 C-35.77610058 29.12483503 -34.20057651 28.56234403 -32.625 28 C-31.43390625 27.57074219 -31.43390625 27.57074219 -30.21875 27.1328125 C-29.45820313 26.86210937 -28.69765625 26.59140625 -27.9140625 26.3125 C-27.2123291 26.06113281 -26.5105957 25.80976563 -25.78759766 25.55078125 C-24 25 -24 25 -22 25 C-22.49371094 24.40832031 -22.98742187 23.81664062 -23.49609375 23.20703125 C-24.13675781 22.41683594 -24.77742188 21.62664062 -25.4375 20.8125 C-26.07558594 20.03519531 -26.71367187 19.25789063 -27.37109375 18.45703125 C-29.07176557 15.89174929 -29.61830031 14.02671729 -30 11 C-27.25431382 13.60159769 -25.26860954 16.43695201 -23.18359375 19.57421875 C-22.59771484 20.27998047 -22.59771484 20.27998047 -22 21 C-21.34 21 -20.68 21 -20 21 C-19.01 16.05 -18.02 11.1 -17 6 C-16.67 6 -16.34 6 -16 6 C-15.94558344 7.89551022 -15.90701965 9.7914792 -15.875 11.6875 C-15.85179687 12.74324219 -15.82859375 13.79898438 -15.8046875 14.88671875 C-16.00141271 18.02251859 -16.66942346 20.17645373 -18 23 C-17.30132812 22.6390625 -16.60265625 22.278125 -15.8828125 21.90625 C-14.97273438 21.4421875 -14.06265625 20.978125 -13.125 20.5 C-12.22007812 20.0359375 -11.31515625 19.571875 -10.3828125 19.09375 C-8 18 -8 18 -6 18 C-6 18.66 -6 19.32 -6 20 C-7.4562545 20.67119549 -8.91507867 21.33681807 -10.375 22 C-11.18710938 22.37125 -11.99921875 22.7425 -12.8359375 23.125 C-15 24 -15 24 -17 24 C-17 24.66 -17 25.32 -17 26 C-16.21625 26.2475 -15.4325 26.495 -14.625 26.75 C-10.01249178 28.34052008 -5.52164468 30.16690081 -1 32 C-1 26.72 -1 21.44 -1 16 C-1.99 15.505 -1.99 15.505 -3 15 C-2.67 14.34 -2.34 13.68 -2 13 C-2.99 12.01 -3.98 11.02 -5 10 C-3.68 10.33 -2.36 10.66 -1 11 C-1.01160156 10.28972656 -1.02320313 9.57945312 -1.03515625 8.84765625 C-1.04417969 7.92855469 -1.05320312 7.00945312 -1.0625 6.0625 C-1.07410156 5.14597656 -1.08570313 4.22945312 -1.09765625 3.28515625 C-1 1 -1 1 0 0 Z " fill="#E1E1E2" transform="translate(213,128)"/>
<path d="M0 0 C-0.57539314 5.20285068 -2.29418893 9.23956036 -4.5625 13.875 C-4.89185547 14.56335938 -5.22121094 15.25171875 -5.56054688 15.9609375 C-6.36695361 17.6438733 -7.18254494 19.32240293 -8 21 C-7.17242187 21.14115234 -7.17242187 21.14115234 -6.328125 21.28515625 C-3.37594435 22.1916144 -1.27278656 23.66343518 1.25 25.4375 C2.14203125 26.05496094 3.0340625 26.67242187 3.953125 27.30859375 C4.62859375 27.86675781 5.3040625 28.42492187 6 29 C6 29.66 6 30.32 6 31 C5.39937744 31.16604736 4.79875488 31.33209473 4.17993164 31.50317383 C1.47032475 32.26005753 -1.23345758 33.03598273 -3.9375 33.8125 C-4.88302734 34.07353516 -5.82855469 34.33457031 -6.80273438 34.60351562 C-7.70185547 34.86455078 -8.60097656 35.12558594 -9.52734375 35.39453125 C-10.35999756 35.63018799 -11.19265137 35.86584473 -12.05053711 36.10864258 C-12.69385986 36.40279053 -13.33718262 36.69693848 -14 37 C-14.33 37.99 -14.66 38.98 -15 40 C-13.906875 39.505 -12.81375 39.01 -11.6875 38.5 C-8 37 -8 37 -5 37 C-3.71682108 40.84953676 -3.93356363 43.94738135 -4 48 C-4.66 48 -5.32 48 -6 48 C-5.67 48.99 -5.34 49.98 -5 51 C-4.67 51 -4.34 51 -4 51 C-3.97278824 52.89575251 -3.95350864 54.79161979 -3.9375 56.6875 C-3.92589844 57.74324219 -3.91429687 58.79898438 -3.90234375 59.88671875 C-3.99134575 62.72410262 -4.35060162 65.2438919 -5 68 C-10.6143991 66.43551329 -15.86810338 64.83604813 -21 62 C-21 61.34 -21 60.68 -21 60 C-19.73308493 59.32591692 -18.46129251 58.66099503 -17.1875 58 C-16.47980469 57.62875 -15.77210938 57.2575 -15.04296875 56.875 C-13 56 -13 56 -10 56 C-10 55.34 -10 54.68 -10 54 C-10.69867188 54.3609375 -11.39734375 54.721875 -12.1171875 55.09375 C-13.02726562 55.5578125 -13.93734375 56.021875 -14.875 56.5 C-15.77992188 56.9640625 -16.68484375 57.428125 -17.6171875 57.90625 C-20 59 -20 59 -22 59 C-21.7525 58.01 -21.7525 58.01 -21.5 57 C-20.87816701 53.26900206 -20.93591074 49.78126622 -21 46 C-21.66 49.63 -22.32 53.26 -23 57 C-24.32 57 -25.64 57 -27 57 C-28.703125 55.03125 -28.703125 55.03125 -30.25 52.5 C-30.77078125 51.6646875 -31.2915625 50.829375 -31.828125 49.96875 C-32.21484375 49.3190625 -32.6015625 48.669375 -33 48 C-31.71170874 53.03604767 -29.73667619 55.45999097 -26 59 C-26 59.66 -26 60.32 -26 61 C-28.79035046 62.00380916 -31.58214855 63.0031945 -34.375 64 C-35.1690625 64.28617187 -35.963125 64.57234375 -36.78125 64.8671875 C-37.92207031 65.27324219 -37.92207031 65.27324219 -39.0859375 65.6875 C-39.7876709 65.93886719 -40.4894043 66.19023437 -41.21240234 66.44921875 C-43 67 -43 67 -45 67 C-43.443154 62.98696492 -41.68861143 59.0907072 -39.875 55.1875 C-39.33617187 54.02605469 -38.79734375 52.86460937 -38.2421875 51.66796875 C-37.83226562 50.78753906 -37.42234375 49.90710938 -37 49 C-37.66 49 -38.32 49 -39 49 C-39.26941406 49.70769531 -39.53882813 50.41539062 -39.81640625 51.14453125 C-41.03973826 54.0958702 -42.42808479 56.8722294 -43.9375 59.6875 C-44.44152344 60.64011719 -44.94554687 61.59273437 -45.46484375 62.57421875 C-47 65 -47 65 -50 67 C-51.80230168 63.17010894 -52.19622241 60.21878192 -52 56 C-52.55429688 56.30035156 -53.10859375 56.60070312 -53.6796875 56.91015625 C-54.40414062 57.29042969 -55.12859375 57.67070312 -55.875 58.0625 C-56.95394531 58.63677734 -56.95394531 58.63677734 -58.0546875 59.22265625 C-58.69664062 59.47917969 -59.33859375 59.73570312 -60 60 C-60.66 59.67 -61.32 59.34 -62 59 C-61.59160889 58.5968457 -61.18321777 58.19369141 -60.76245117 57.77832031 C-58.90147279 55.93821617 -57.04446276 54.09415612 -55.1875 52.25 C-54.54490234 51.61578125 -53.90230469 50.9815625 -53.24023438 50.328125 C-52.30727539 49.4 -52.30727539 49.4 -51.35546875 48.453125 C-50.49924927 47.60476074 -50.49924927 47.60476074 -49.62573242 46.73925781 C-47.9321407 45.00091253 -47.9321407 45.00091253 -46.45825195 42.86230469 C-44.60728097 40.4984663 -42.8137472 39.91256666 -40 39 C-40.33 38.34 -40.66 37.68 -41 37 C-40.0390625 34.72265625 -40.0390625 34.72265625 -38.625 32.0625 C-37.19875971 29.35742415 -35.96882638 26.90647913 -35 24 C-33.24444171 22.39379097 -31.42197094 20.85967511 -29.5625 19.375 C-28.57378906 18.57835938 -27.58507812 17.78171875 -26.56640625 16.9609375 C-24 15 -24 15 -22 14 C-22.66 17.3 -23.32 20.6 -24 24 C-22.68 20.7 -21.36 17.4 -20 14 C-16.5879008 14.8530248 -13.32514673 15.86642725 -10 17 C-10.72268235 13.7014861 -10.72268235 13.7014861 -14.0625 12.3125 C-15.5165625 11.6628125 -15.5165625 11.6628125 -17 11 C-14.06072511 7.85177192 -11.0143222 5.54542155 -7.375 3.25 C-5.93253906 2.32960938 -5.93253906 2.32960938 -4.4609375 1.390625 C-2 0 -2 0 0 0 Z " fill="#A51E23" transform="translate(217,92)"/>
<path d="M0 0 C-0.57539314 5.20285068 -2.29418893 9.23956036 -4.5625 13.875 C-4.89185547 14.56335938 -5.22121094 15.25171875 -5.56054688 15.9609375 C-6.36695361 17.6438733 -7.18254494 19.32240293 -8 21 C-7.17242187 21.14115234 -7.17242187 21.14115234 -6.328125 21.28515625 C-3.37594435 22.1916144 -1.27278656 23.66343518 1.25 25.4375 C2.14203125 26.05496094 3.0340625 26.67242187 3.953125 27.30859375 C4.62859375 27.86675781 5.3040625 28.42492187 6 29 C6 29.66 6 30.32 6 31 C5.39937744 31.16604736 4.79875488 31.33209473 4.17993164 31.50317383 C1.47032475 32.26005753 -1.23345758 33.03598273 -3.9375 33.8125 C-4.88302734 34.07353516 -5.82855469 34.33457031 -6.80273438 34.60351562 C-7.70185547 34.86455078 -8.60097656 35.12558594 -9.52734375 35.39453125 C-10.35999756 35.63018799 -11.19265137 35.86584473 -12.05053711 36.10864258 C-12.69385986 36.40279053 -13.33718262 36.69693848 -14 37 C-14.33 37.99 -14.66 38.98 -15 40 C-13.906875 39.505 -12.81375 39.01 -11.6875 38.5 C-8 37 -8 37 -5 37 C-3.71682108 40.84953676 -3.93356363 43.94738135 -4 48 C-4.66 48 -5.32 48 -6 48 C-5.67 48.99 -5.34 49.98 -5 51 C-4.67 51 -4.34 51 -4 51 C-3.97278824 52.89575251 -3.95350864 54.79161979 -3.9375 56.6875 C-3.92589844 57.74324219 -3.91429687 58.79898438 -3.90234375 59.88671875 C-3.99134575 62.72410262 -4.35060162 65.2438919 -5 68 C-10.6143991 66.43551329 -15.86810338 64.83604813 -21 62 C-21 61.34 -21 60.68 -21 60 C-19.73308493 59.32591692 -18.46129251 58.66099503 -17.1875 58 C-16.47980469 57.62875 -15.77210938 57.2575 -15.04296875 56.875 C-13 56 -13 56 -10 56 C-10 55.34 -10 54.68 -10 54 C-11.04800781 54.54140625 -11.04800781 54.54140625 -12.1171875 55.09375 C-13.02726563 55.5578125 -13.93734375 56.021875 -14.875 56.5 C-15.77992188 56.9640625 -16.68484375 57.428125 -17.6171875 57.90625 C-20 59 -20 59 -22 59 C-21.34 53.39 -20.68 47.78 -20 42 C-22.97 42.495 -22.97 42.495 -26 43 C-23.10349478 38.5469616 -20.01187281 34.31612727 -16.75 30.125 C-16.29109375 29.53203125 -15.8321875 28.9390625 -15.359375 28.328125 C-14.24136829 26.884033 -13.12093832 25.4418176 -12 24 C-14.72371863 24.60134048 -16.59401994 25.30889037 -19.125 26.625 C-20.07375 27.07875 -21.0225 27.5325 -22 28 C-22.66 27.67 -23.32 27.34 -24 27 C-20.2064129 23.78119883 -16.34170523 21.3836813 -12 19 C-12 18.34 -12 17.68 -12 17 C-11.34 17 -10.68 17 -10 17 C-10.72268235 13.7014861 -10.72268235 13.7014861 -14.0625 12.3125 C-15.031875 11.879375 -16.00125 11.44625 -17 11 C-14.06072511 7.85177192 -11.0143222 5.54542155 -7.375 3.25 C-6.41335937 2.63640625 -5.45171875 2.0228125 -4.4609375 1.390625 C-2 0 -2 0 0 0 Z " fill="#B42325" transform="translate(217,92)"/>
<path d="M0 0 C0.99 0.33 1.98 0.66 3 1 C4.2109375 3.58984375 4.2109375 3.58984375 5.375 6.9375 C7.52906335 12.86935835 10.0448837 18.4292914 13 24 C10.69 24.66 8.38 25.32 6 26 C6.49113281 26.84304687 6.49113281 26.84304687 6.9921875 27.703125 C8.11785494 30.26859964 8.2068111 31.96842277 8.125 34.75 C8.10695312 35.54921875 8.08890625 36.3484375 8.0703125 37.171875 C8.04710937 37.77515625 8.02390625 38.3784375 8 39 C7.45472656 38.855625 6.90945312 38.71125 6.34765625 38.5625 C0.75040076 37.18471403 -4.23945745 36.81712563 -10 37 C-10.51949219 35.98292969 -11.03898438 34.96585938 -11.57421875 33.91796875 C-14.40912535 28.94969176 -18.46799748 25.44409099 -22.66210938 21.63085938 C-24.39453125 19.98828125 -24.39453125 19.98828125 -27 17 C-26.7015034 14.41654356 -26.35052349 13.34153571 -24.4765625 11.515625 C-23.86554688 11.09796875 -23.25453125 10.6803125 -22.625 10.25 C-22.01914063 9.82203125 -21.41328125 9.3940625 -20.7890625 8.953125 C-19 8 -19 8 -16 8 C-16 8.66 -16 9.32 -16 10 C-15.0925 9.95875 -14.185 9.9175 -13.25 9.875 C-7.40165541 9.86299108 -0.26683648 10.36658176 5 13 C4.7834375 12.45730469 4.566875 11.91460937 4.34375 11.35546875 C4.0653125 10.64003906 3.786875 9.92460938 3.5 9.1875 C3.2215625 8.47980469 2.943125 7.77210937 2.65625 7.04296875 C2 5 2 5 2 2 C0.68 1.67 -0.64 1.34 -2 1 C-1.34 0.67 -0.68 0.34 0 0 Z " fill="#9B1F25" transform="translate(188,62)"/>
<path d="M0 0 C0.66 0 1.32 0 2 0 C7.34438087 16.0331426 1.92165908 37.74034007 -4 53 C-4.99 53.495 -4.99 53.495 -6 54 C-5.48914188 47.56318772 -4.27057103 42.04057576 -2 36 C-3.32 35.67 -4.64 35.34 -6 35 C-5.34 34.34 -4.68 33.68 -4 33 C-5.93467942 32.16013916 -7.87285129 31.32831973 -9.8125 30.5 C-10.89144531 30.0359375 -11.97039062 29.571875 -13.08203125 29.09375 C-15.94882024 27.82450697 -15.94882024 27.82450697 -19 28 C-20.98 32.29 -22.96 36.58 -25 41 C-25.66 41 -26.32 41 -27 41 C-26.39124095 36.86043846 -24.89477831 33.70717496 -23 30 C-23 29.34 -23 28.68 -23 28 C-24.10859375 28.433125 -25.2171875 28.86625 -26.359375 29.3125 C-27.82278247 29.87534903 -29.28633162 30.43782979 -30.75 31 C-31.47960937 31.28617188 -32.20921875 31.57234375 -32.9609375 31.8671875 C-33.66992188 32.13789063 -34.37890625 32.40859375 -35.109375 32.6875 C-35.75874023 32.93886719 -36.40810547 33.19023437 -37.07714844 33.44921875 C-39 34 -39 34 -43 34 C-39.65996398 38.32239956 -36.67248931 41.17477391 -32 44 C-32.99 44.99 -33.98 45.98 -35 47 C-35 46.34 -35 45.68 -35 45 C-35.680625 44.79375 -36.36125 44.5875 -37.0625 44.375 C-40.97009851 42.54591134 -43.83857939 39.89720966 -47 37 C-47.27585938 37.59296875 -47.55171875 38.1859375 -47.8359375 38.796875 C-49.49365804 41.93430583 -51.68322145 44.31741431 -54 47 C-54 43.58678765 -53.33132534 42.60527115 -51.5 39.8125 C-50.80390625 38.73935547 -50.80390625 38.73935547 -50.09375 37.64453125 C-49.55234375 36.83048828 -49.55234375 36.83048828 -49 36 C-52.465 36.495 -52.465 36.495 -56 37 C-52.375 34 -52.375 34 -49 34 C-49.33 32.96875 -49.66 31.9375 -50 30.875 C-50.9715192 27.51573291 -51.17116771 24.50893798 -51 21 C-50.01 20.67 -49.02 20.34 -48 20 C-47.34 22.97 -46.68 25.94 -46 29 C-45.34 29 -44.68 29 -44 29 C-41.03 23.72 -38.06 18.44 -35 13 C-34.34 13 -33.68 13 -33 13 C-33.60266785 17.50727647 -35.36599794 20.8587963 -37.5625 24.8125 C-37.89185547 25.40998047 -38.22121094 26.00746094 -38.56054688 26.62304688 C-39.36773267 28.08533998 -40.18304917 29.5431399 -41 31 C-39.79601562 30.566875 -38.59203125 30.13375 -37.3515625 29.6875 C-35.77610058 29.12483503 -34.20057651 28.56234403 -32.625 28 C-31.8309375 27.71382812 -31.036875 27.42765625 -30.21875 27.1328125 C-29.45820313 26.86210937 -28.69765625 26.59140625 -27.9140625 26.3125 C-27.2123291 26.06113281 -26.5105957 25.80976563 -25.78759766 25.55078125 C-24 25 -24 25 -22 25 C-22.49371094 24.40832031 -22.98742187 23.81664062 -23.49609375 23.20703125 C-24.13675781 22.41683594 -24.77742188 21.62664062 -25.4375 20.8125 C-26.07558594 20.03519531 -26.71367187 19.25789063 -27.37109375 18.45703125 C-29.07176557 15.89174929 -29.61830031 14.02671729 -30 11 C-27.25431382 13.60159769 -25.26860954 16.43695201 -23.18359375 19.57421875 C-22.59771484 20.27998047 -22.59771484 20.27998047 -22 21 C-21.34 21 -20.68 21 -20 21 C-19.01 16.05 -18.02 11.1 -17 6 C-16.67 6 -16.34 6 -16 6 C-15.94558344 7.89551022 -15.90701965 9.7914792 -15.875 11.6875 C-15.85179687 12.74324219 -15.82859375 13.79898438 -15.8046875 14.88671875 C-16.00141271 18.02251859 -16.66942346 20.17645373 -18 23 C-17.30132812 22.6390625 -16.60265625 22.278125 -15.8828125 21.90625 C-14.97273438 21.4421875 -14.06265625 20.978125 -13.125 20.5 C-12.22007812 20.0359375 -11.31515625 19.571875 -10.3828125 19.09375 C-8 18 -8 18 -6 18 C-6 18.66 -6 19.32 -6 20 C-7.4562545 20.67119549 -8.91507867 21.33681807 -10.375 22 C-11.18710938 22.37125 -11.99921875 22.7425 -12.8359375 23.125 C-15 24 -15 24 -17 24 C-17 24.66 -17 25.32 -17 26 C-16.21625 26.2475 -15.4325 26.495 -14.625 26.75 C-10.01249178 28.34052008 -5.52164468 30.16690081 -1 32 C-1 26.72 -1 21.44 -1 16 C-1.66 15.67 -2.32 15.34 -3 15 C-2.67 14.34 -2.34 13.68 -2 13 C-2.99 12.01 -3.98 11.02 -5 10 C-3.68 10.33 -2.36 10.66 -1 11 C-1.01160156 10.28972656 -1.02320313 9.57945312 -1.03515625 8.84765625 C-1.04417969 7.92855469 -1.05320313 7.00945312 -1.0625 6.0625 C-1.07410156 5.14597656 -1.08570313 4.22945312 -1.09765625 3.28515625 C-1 1 -1 1 0 0 Z " fill="#E5E6E7" transform="translate(213,128)"/>
<path d="M0 0 C-1.20689255 3.10343799 -2.50596946 6.01193893 -4 9 C-2.02 6.36 -0.04 3.72 2 1 C5.07492597 2.53746298 7.52314365 3.98010641 10.25 6 C10.95640625 6.515625 11.6628125 7.03125 12.390625 7.5625 C12.92171875 8.036875 13.4528125 8.51125 14 9 C14 9.66 14 10.32 14 11 C10.04 12.65 6.08 14.3 2 16 C3.5675 15.484375 5.135 14.96875 6.75 14.4375 C10.67828787 13.14530004 11.81229899 12.95307475 16 14 C13.36 18.29 10.72 22.58 8 27 C2.35048657 25.3967597 -2.83555068 23.85403778 -8 21 C-8 20.34 -8 19.68 -8 19 C-8.99 18.67 -9.98 18.34 -11 18 C-11 17.67 -11 17.34 -11 17 C-11.5775 16.773125 -12.155 16.54625 -12.75 16.3125 C-16.52284957 14.11167108 -18.62574899 11.40344128 -19.75 7.1875 C-19.8325 6.465625 -19.915 5.74375 -20 5 C-16.34448429 3.4487664 -12.72787251 2.33097589 -8.875 1.375 C-7.84117187 1.11460937 -6.80734375 0.85421875 -5.7421875 0.5859375 C-3 0 -3 0 0 0 Z " fill="#323541" transform="translate(164,164)"/>
<path d="M0 0 C5.14505988 3.58957666 8.3602381 7.72133121 9.6875 13.875 C10.32833285 20.02012931 9.69213522 25.41419472 6.6875 30.875 C3.99536175 34.05034255 1.55700602 36.29853458 -2.3125 37.875 C-0.78541037 41.31095166 1.28677045 43.99412454 3.6875 46.875 C1.0625 47.3125 1.0625 47.3125 -2.3125 46.875 C-3.66015625 45.45703125 -3.66015625 45.45703125 -5 43.625 C-7.60598959 40.18481797 -9.77325408 39.10460495 -13.875 37.8125 C-20.01693032 35.86811173 -22.02556378 33.52436631 -25.4140625 28.1171875 C-26.65427721 25.02204295 -26.61427214 22.32563587 -26.625 19 C-26.64175781 17.80632812 -26.65851563 16.61265625 -26.67578125 15.3828125 C-26.21181683 10.90281198 -24.89662509 7.61542544 -21.84765625 4.265625 C-14.78549538 -1.20427148 -8.71733974 -2.96060595 0 0 Z M-20.3125 8.875 C-23.14168006 13.30328184 -22.9567358 18.78474183 -22.3125 23.875 C-20.64313226 28.63946578 -17.72876886 32.4215173 -13.3125 34.875 C-8.61910608 35.71807261 -5.24019166 35.32166635 -0.9375 33.25 C2.99296258 29.69386719 4.48392569 27.11997227 4.96875 21.7734375 C5.16968206 14.3556955 4.65899404 10.20667514 -0.375 4.5625 C-7.99164234 0.18698206 -14.9487986 2.35411521 -20.3125 8.875 Z " fill="#F3F3F3" transform="translate(104.3125,212.125)"/>
<path d="M0 0 C2.96922861 1.79349379 5.42452071 3.84904142 7 7 C7 9.97 7 12.94 7 16 C0.73 16 -5.54 16 -12 16 C-9.5797509 21.63106761 -9.5797509 21.63106761 -7 24 C-2.46057302 24.22325051 1.57117061 24.10720735 6 23 C5.875 24.875 5.875 24.875 5 27 C0.36180461 29.37566105 -4.08679837 29.53354405 -9 28 C-12.46187115 25.92885895 -14.69513389 23.91459833 -16 20 C-16.50704484 14.70512196 -16.64847741 10.34499019 -14.3125 5.5 C-9.92969366 0.76183099 -6.54361403 -0.91840197 0 0 Z " fill="#ECECED" transform="translate(192,222)"/>
<path d="M0 0 C2.96922861 1.79349379 5.42452071 3.84904142 7 7 C7 9.64 7 12.28 7 15 C0.73 15 -5.54 15 -12 15 C-9.71183213 21.53576165 -9.71183213 21.53576165 -7 24 C-2.52474708 24.25818767 1.60854301 23.85686966 6 23 C5.8125 24.875 5.8125 24.875 5 27 C1.23136116 29.47316924 -2.47497575 29.20943575 -6.77734375 28.61328125 C-10.48783082 27.58947374 -12.35667861 25.77548746 -15 23 C-16.94892318 17.15323045 -16.99344445 11.06047738 -14.3125 5.5 C-9.92969366 0.76183099 -6.54361403 -0.91840197 0 0 Z " fill="#F2F2F2" transform="translate(263,222)"/>
<path d="M0 0 C1.34073732 0.30217931 2.67309165 0.64194537 4 1 C5.54494141 1.37318359 5.54494141 1.37318359 7.12109375 1.75390625 C10.08791048 2.47726439 13.04537155 3.22859454 16 4 C16 4.66 16 5.32 16 6 C16.99 6 17.98 6 19 6 C18.71517632 7.41805831 18.42181856 8.83440379 18.125 10.25 C17.96257812 11.03890625 17.80015625 11.8278125 17.6328125 12.640625 C17.00849925 14.96831144 16.15161458 16.89031952 15 19 C-4.53191489 17.19148936 -4.53191489 17.19148936 -13 14 C-11.54126389 11.76813375 -10.07010404 9.54705911 -8.57421875 7.33984375 C-7.36552412 5.54329764 -6.20348205 3.71529362 -5.0625 1.875 C-3 0 -3 0 0 0 Z " fill="#4D4F58" transform="translate(186,177)"/>
<path d="M0 0 C1.17369141 -0.00386719 1.17369141 -0.00386719 2.37109375 -0.0078125 C4.5625 0.125 4.5625 0.125 7.5625 1.125 C7.5625 2.775 7.5625 4.425 7.5625 6.125 C7.0675 5.96 6.5725 5.795 6.0625 5.625 C2.46440467 4.90538093 -0.76289233 4.9471964 -4.4375 5.125 C-6.66538215 6.9976733 -6.66538215 6.9976733 -7.0625 9.875 C-6.33714099 13.64686687 -5.78219922 13.99422978 -2.8125 16.1875 C-1.35774676 17.17197777 0.10054996 18.15124153 1.5625 19.125 C7.27206522 23.54413043 7.27206522 23.54413043 8.5625 26.125 C9.36156078 33.08824393 9.36156078 33.08824393 7.328125 35.7265625 C2.52787266 39.79014245 -1.29790734 40.44256514 -7.4375 40.125 C-10.375 39.125 -10.375 39.125 -12.4375 38.125 C-12.4375 36.475 -12.4375 34.825 -12.4375 33.125 C-11.591875 33.455 -10.74625 33.785 -9.875 34.125 C-6.15256428 35.20789039 -3.29332405 35.48875699 0.5625 35.125 C2.69120693 34.16382095 2.69120693 34.16382095 3.5625 32.125 C3.56798321 29.17768576 3.56798321 29.17768576 2.5625 26.125 C0.21591211 23.85946639 0.21591211 23.85946639 -2.75 22.0625 C-6.74179957 19.45637184 -9.77197705 17.12328442 -12.4375 13.125 C-12.51837401 8.59605531 -11.94258097 6.72073652 -9 3.25 C-5.69756236 0.51139318 -4.19006176 -0.01376047 0 0 Z " fill="#EFEFEF" transform="translate(163.4375,210.875)"/>
<path d="M0 0 C0.886875 -0.00257813 1.77375 -0.00515625 2.6875 -0.0078125 C5 0.125 5 0.125 7 1.125 C7 2.775 7 4.425 7 6.125 C6.01 5.795 5.02 5.465 4 5.125 C2.48233461 5.00867271 0.9595654 4.95003761 -0.5625 4.9375 C-1.34753906 4.92332031 -2.13257813 4.90914062 -2.94140625 4.89453125 C-5.2243545 4.93332491 -5.2243545 4.93332491 -7 7.125 C-7.31503267 10.27532674 -7.38745591 11.37151608 -6 14.125 C-3.35683045 16.45645489 -0.6049517 18.38822447 2.3359375 20.328125 C7.76845013 23.99228308 7.76845013 23.99228308 8.43359375 27.24609375 C8.44411215 33.48350467 8.44411215 33.48350467 6.3125 36.5625 C0.42241435 40.5422876 -4.13156994 40.32849482 -11 39.125 C-11.66 38.795 -12.32 38.465 -13 38.125 C-13 36.475 -13 34.825 -13 33.125 C-12.154375 33.455 -11.30875 33.785 -10.4375 34.125 C-6.73572148 35.20188102 -3.83569019 35.41448605 0 35.125 C3.22540156 33.44585585 3.22540156 33.44585585 3.75 30.4375 C2.54380283 25.11012918 -1.66028689 23.10309171 -6 20.125 C-11.95032051 15.69391026 -11.95032051 15.69391026 -13 12.125 C-12.91242501 8.00897549 -12.28658013 6.45566938 -9.5625 3.3125 C-6.08191276 0.34126699 -4.48273641 -0.01303121 0 0 Z " fill="#F0F0F1" transform="translate(65,210.875)"/>
<path d="M0 0 C11.35310914 6.01046954 11.35310914 6.01046954 14 9 C14.33 9.33 14.66 9.66 15 10 C15.09983684 11.91451817 15.12967589 13.83288619 15.125 15.75 C15.12886719 17.32007813 15.12886719 17.32007813 15.1328125 18.921875 C15.01155348 21.73223122 14.63784091 24.26639609 14 27 C8.3856009 25.43551329 3.13189662 23.83604813 -2 21 C-2 20.34 -2 19.68 -2 19 C-0.73308493 18.32591692 0.53870749 17.66099503 1.8125 17 C2.52019531 16.62875 3.22789062 16.2575 3.95703125 15.875 C6 15 6 15 9 15 C9 14.34 9 13.68 9 13 C7.95199219 13.54140625 7.95199219 13.54140625 6.8828125 14.09375 C5.97273437 14.5578125 5.06265625 15.021875 4.125 15.5 C3.22007812 15.9640625 2.31515625 16.428125 1.3828125 16.90625 C-1 18 -1 18 -3 18 C-2.01 12.06 -1.02 6.12 0 0 Z " fill="#353742" transform="translate(198,133)"/>
<path d="M0 0 C3.64126353 1.30777775 6.45444663 2.86932095 9.5 5.25 C10.2321875 5.81203125 10.964375 6.3740625 11.71875 6.953125 C14.48048737 9.43112223 16.67874712 12.10660733 19 15 C15.52109541 15.48108177 12.04183048 15.95950891 8.5625 16.4375 C7.58861328 16.57220703 6.61472656 16.70691406 5.61132812 16.84570312 C-0.2520351 17.64970945 -6.11501273 18.37316061 -12 19 C-10.6337836 16.16544744 -9.27827984 14.04831941 -7.125 11.75 C-3.9135986 8.12143126 -2.00614273 4.39808214 0 0 Z " fill="#2D2C37" transform="translate(242,101)"/>
<path d="M0 0 C0.99 0.33 1.98 0.66 3 1 C4.24609375 3.625 4.24609375 3.625 5.4375 7 C7.41926675 12.44685589 9.56744456 17.74078795 12 23 C8.26360784 21.75453595 7.81243487 20.36595047 6 17 C3.69 18.32 1.38 19.64 -1 21 C-0.34 21.66 0.32 22.32 1 23 C-7.9000999 23.45254745 -7.9000999 23.45254745 -12 20 C-14.1318184 17.42044886 -16.09765319 14.75219247 -18 12 C-18.61359375 12.30679688 -19.2271875 12.61359375 -19.859375 12.9296875 C-21.90625 13.953125 -23.953125 14.9765625 -26 16 C-26 15.01 -26 14.02 -26 13 C-24.57421875 11.61328125 -24.57421875 11.61328125 -22.6875 10.3125 C-22.07261719 9.87550781 -21.45773438 9.43851563 -20.82421875 8.98828125 C-19 8 -19 8 -16 8 C-16 8.66 -16 9.32 -16 10 C-15.0925 9.95875 -14.185 9.9175 -13.25 9.875 C-7.40165541 9.86299108 -0.26683648 10.36658176 5 13 C4.7834375 12.45730469 4.566875 11.91460937 4.34375 11.35546875 C4.0653125 10.64003906 3.786875 9.92460938 3.5 9.1875 C3.2215625 8.47980469 2.943125 7.77210937 2.65625 7.04296875 C2 5 2 5 2 2 C0.68 1.67 -0.64 1.34 -2 1 C-1.34 0.67 -0.68 0.34 0 0 Z " fill="#BB9B9F" transform="translate(188,62)"/>
<path d="M0 0 C1.65 0 3.3 0 5 0 C5 11.55 5 23.1 5 35 C9.95 35 14.9 35 20 35 C20 36.32 20 37.64 20 39 C13.4 39 6.8 39 0 39 C0 26.13 0 13.26 0 0 Z " fill="#E8E8E8" transform="translate(120,211)"/>
<path d="M0 0 C0.66 0 1.32 0 2 0 C7.34438087 16.0331426 1.92165908 37.74034007 -4 53 C-4.99 53.495 -4.99 53.495 -6 54 C-5.48914188 47.56318772 -4.27057103 42.04057576 -2 36 C-3.32 35.67 -4.64 35.34 -6 35 C-5.34 34.34 -4.68 33.68 -4 33 C-5.89564426 32.20788071 -7.79152371 31.41632424 -9.6875 30.625 C-10.74324219 30.18414062 -11.79898438 29.74328125 -12.88671875 29.2890625 C-15.58356657 28.17242538 -18.28716264 27.07708199 -21 26 C-19.66666667 19.33333333 -18.33333333 12.66666667 -17 6 C-16.67 6 -16.34 6 -16 6 C-15.94558344 7.89551022 -15.90701965 9.7914792 -15.875 11.6875 C-15.85179687 12.74324219 -15.82859375 13.79898438 -15.8046875 14.88671875 C-16.00141271 18.02251859 -16.66942346 20.17645373 -18 23 C-17.30132812 22.6390625 -16.60265625 22.278125 -15.8828125 21.90625 C-14.97273437 21.4421875 -14.06265625 20.978125 -13.125 20.5 C-12.22007812 20.0359375 -11.31515625 19.571875 -10.3828125 19.09375 C-8 18 -8 18 -6 18 C-6 18.66 -6 19.32 -6 20 C-7.4562545 20.67119549 -8.91507867 21.33681807 -10.375 22 C-11.59316406 22.556875 -11.59316406 22.556875 -12.8359375 23.125 C-15 24 -15 24 -17 24 C-17 24.66 -17 25.32 -17 26 C-16.21625 26.2475 -15.4325 26.495 -14.625 26.75 C-10.01249178 28.34052008 -5.52164468 30.16690081 -1 32 C-1 26.72 -1 21.44 -1 16 C-1.66 15.67 -2.32 15.34 -3 15 C-2.67 14.34 -2.34 13.68 -2 13 C-2.99 12.01 -3.98 11.02 -5 10 C-3.68 10.33 -2.36 10.66 -1 11 C-1.01160156 10.28972656 -1.02320313 9.57945312 -1.03515625 8.84765625 C-1.04417969 7.92855469 -1.05320313 7.00945312 -1.0625 6.0625 C-1.07410156 5.14597656 -1.08570313 4.22945312 -1.09765625 3.28515625 C-1 1 -1 1 0 0 Z " fill="#EDEDEE" transform="translate(213,128)"/>
<path d="M0 0 C-1.16651426 5.92863717 -2.75519358 11.38798394 -5 17 C-12.04007955 16.0026554 -18.43901392 14.7758018 -25 12 C-24 9 -24 9 -22.11401367 7.83325195 C-21.30681885 7.47191162 -20.49962402 7.11057129 -19.66796875 6.73828125 C-18.78689453 6.34189453 -17.90582031 5.94550781 -16.99804688 5.53710938 C-16.07056641 5.13298828 -15.14308594 4.72886719 -14.1875 4.3125 C-13.27162109 3.89677734 -12.35574219 3.48105469 -11.41210938 3.05273438 C-4.52967211 0 -4.52967211 0 0 0 Z " fill="#333641" transform="translate(211,164)"/>
<path d="M0 0 C-1.56094674 2.0428701 -3.12370929 4.08430858 -4.6875 6.125 C-5.12255859 6.69476563 -5.55761719 7.26453125 -6.00585938 7.8515625 C-8.9165585 11.64625172 -11.91648254 15.34422615 -15 19 C-18.38746512 17.87084496 -19.37451366 16.77256927 -21.6875 14.125 C-22.31011719 13.42632812 -22.93273437 12.72765625 -23.57421875 12.0078125 C-25 10 -25 10 -25 7 C-3.66666667 -1.83333333 -3.66666667 -1.83333333 0 0 Z " fill="#2E2B37" transform="translate(241,102)"/>
<path d="M0 0 C2.29296875 -0.0234375 2.29296875 -0.0234375 5 1 C6.5740244 3.62784043 7.40985925 6.45987525 8.3125 9.375 C8.57611328 10.15617188 8.83972656 10.93734375 9.11132812 11.7421875 C10.18296909 14.99329568 11 17.55054096 11 21 C11.66 21 12.32 21 13 21 C13.17015625 20.40574219 13.3403125 19.81148437 13.515625 19.19921875 C15.41710318 12.69575882 17.62386266 6.34440732 20 0 C21.65 0 23.3 0 25 0 C23.47021353 4.3248199 21.89588381 8.6320436 20.3125 12.9375 C19.87744141 14.16919922 19.44238281 15.40089844 18.99414062 16.66992188 C18.55908203 17.83974609 18.12402344 19.00957031 17.67578125 20.21484375 C17.28302002 21.29886475 16.89025879 22.38288574 16.4855957 23.49975586 C15 26 15 26 12.33276367 26.86157227 C11.56295166 26.90725342 10.79313965 26.95293457 10 27 C0 3.38297872 0 3.38297872 0 0 Z " fill="#F2F2F2" transform="translate(221,223)"/>
<path d="M0 0 C4.68352499 0.669075 8.90648205 1.39156278 13.4375 2.5625 C14.48808594 2.83191406 15.53867188 3.10132813 16.62109375 3.37890625 C17.40613281 3.58386719 18.19117188 3.78882813 19 4 C19 4.66 19 5.32 19 6 C12.92232991 8.33184077 6.79748682 10.43873956 0.5625 12.3125 C-1.16806641 12.83263672 -1.16806641 12.83263672 -2.93359375 13.36328125 C-6 14 -6 14 -10 13 C-5.05 6.565 -5.05 6.565 0 0 Z " fill="#323540" transform="translate(183,177)"/>
<path d="M0 0 C4.96768758 1.55240237 9.17867057 4.51054781 13 8 C13 8.66 13 9.32 13 10 C9.25049853 11.14746904 5.50031435 12.29269078 1.75 13.4375 C0.68652344 13.76298828 -0.37695312 14.08847656 -1.47265625 14.42382812 C-2.49746094 14.73642578 -3.52226562 15.04902344 -4.578125 15.37109375 C-5.52075195 15.65911865 -6.46337891 15.94714355 -7.43457031 16.24389648 C-9.61379092 16.88617344 -11.79114318 17.47051066 -14 18 C-10.36697482 12.99627301 -6.56138446 8.25566225 -2.41796875 3.6640625 C-0.92124226 2.04224655 -0.92124226 2.04224655 0 0 Z " fill="#2F2B37" transform="translate(210,113)"/>
<path d="M0 0 C3.98017621 0.79603524 7.7422183 1.72355439 11.625 2.875 C12.75164062 3.20242187 13.87828125 3.52984375 15.0390625 3.8671875 C17.91425066 4.96719352 18.98241205 5.80709991 21 8 C17.77198351 8.98298598 14.54239567 9.96070802 11.3125 10.9375 C10.40048828 11.21529297 9.48847656 11.49308594 8.54882812 11.77929688 C7.66259766 12.04677734 6.77636719 12.31425781 5.86328125 12.58984375 C5.05157471 12.83597412 4.23986816 13.08210449 3.40356445 13.33569336 C0.96552768 14.0095276 -1.51967823 14.50393565 -4 15 C-2.68 10.05 -1.36 5.1 0 0 Z " fill="#302B36" transform="translate(218,92)"/>
<path d="M0 0 C1 3 1 3 -0.65234375 6.57421875 C-1.40387723 7.95092168 -2.1660567 9.32185409 -2.9375 10.6875 C-3.51661133 11.7403418 -3.51661133 11.7403418 -4.10742188 12.81445312 C-5.06261773 14.54795672 -6.03015386 16.27465009 -7 18 C-10.73695376 16.6910845 -13.35676324 15.12732156 -16.3125 12.5 C-17.00988281 11.8915625 -17.70726562 11.283125 -18.42578125 10.65625 C-20 9 -20 9 -20 7 C-10.1 3.535 -10.1 3.535 0 0 Z " fill="#363843" transform="translate(190,155)"/>
<path d="M0 0 C7.425 2.97 7.425 2.97 15 6 C15 6.99 15 7.98 15 9 C11.89954577 10.34208754 8.79407011 11.67213754 5.6875 13 C4.80642578 13.3815625 3.92535156 13.763125 3.01757812 14.15625 C2.17001953 14.5171875 1.32246094 14.878125 0.44921875 15.25 C-0.33106689 15.58515625 -1.11135254 15.9203125 -1.9152832 16.265625 C-4 17 -4 17 -7 17 C-5.23678877 11.06919859 -2.59632195 5.60258947 0 0 Z " fill="#343742" transform="translate(194,154)"/>
<path d="M0 0 C0.7425 0.0825 1.485 0.165 2.25 0.25 C2.25 1.57 2.25 2.89 2.25 4.25 C0.579375 4.6521875 0.579375 4.6521875 -1.125 5.0625 C-4.96840951 5.90809019 -4.96840951 5.90809019 -6.75 9.25 C-7.11433373 11.37337771 -7.11433373 11.37337771 -7.1640625 13.69921875 C-7.20273437 14.54677734 -7.24140625 15.39433594 -7.28125 16.26757812 C-7.32765625 17.58918945 -7.32765625 17.58918945 -7.375 18.9375 C-7.41367187 19.83017578 -7.45234375 20.72285156 -7.4921875 21.64257812 C-7.58640218 23.8448462 -7.67201588 26.04710722 -7.75 28.25 C-9.4 28.25 -11.05 28.25 -12.75 28.25 C-12.75 19.34 -12.75 10.43 -12.75 1.25 C-11.1 1.25 -9.45 1.25 -7.75 1.25 C-7.42 2.24 -7.09 3.23 -6.75 4.25 C-6.193125 3.59 -5.63625 2.93 -5.0625 2.25 C-2.75 0.25 -2.75 0.25 0 0 Z " fill="#E5E5E6" transform="translate(287.75,221.75)"/>
<path d="M0 0 C0 3.41321235 -0.66867466 4.39472885 -2.5 7.1875 C-2.9640625 7.90292969 -3.428125 8.61835938 -3.90625 9.35546875 C-4.2671875 9.89816406 -4.628125 10.44085938 -5 11 C-4.08476562 10.76023438 -3.16953125 10.52046875 -2.2265625 10.2734375 C-1.03804687 9.97695312 0.15046875 9.68046875 1.375 9.375 C2.55835938 9.07335937 3.74171875 8.77171875 4.9609375 8.4609375 C5.96382812 8.30882812 6.96671875 8.15671875 8 8 C8.66 8.66 9.32 9.32 10 10 C3.07 11.485 3.07 11.485 -4 13 C-3.12096673 17.87009516 -3.12096673 17.87009516 -0.4375 21.3125 C0.366875 22.199375 1.17125 23.08625 2 24 C3.32 23.67 4.64 23.34 6 23 C5.67 23.99 5.34 24.98 5 26 C5.66 26.33 6.32 26.66 7 27 C7 27.66 7 28.32 7 29 C8.3303125 29.433125 8.3303125 29.433125 9.6875 29.875 C12.50382424 30.83148748 15.25083156 31.86798946 18 33 C17.67 33.66 17.34 34.32 17 35 C8.26578531 33.71134537 0.61471773 30.16410488 -5.26171875 23.39453125 C-8.00679322 19.61311406 -8.44812075 17.06641444 -8.42578125 12.45703125 C-7.52449898 7.25605374 -3.61563248 3.61563248 0 0 Z " fill="#8E99A6" transform="translate(149,156)"/>
<path d="M0 0 C-2.64 4.29 -5.28 8.58 -8 13 C-13.64951343 11.3967597 -18.83555068 9.85403778 -24 7 C-24 6.01 -24 5.02 -24 4 C-19.65623946 2.41081931 -15.56908859 1.64127559 -11 1 C-9.783125 0.62875 -8.56625 0.2575 -7.3125 -0.125 C-4 -1 -4 -1 0 0 Z " fill="#373B46" transform="translate(180,178)"/>
<path d="M0 0 C2.50488282 2.47221043 4.93640746 4.97254794 7.25 7.625 C7.77078125 8.21539062 8.2915625 8.80578125 8.828125 9.4140625 C10 11 10 11 10 13 C7.20964954 14.00380916 4.41785145 15.0031945 1.625 16 C0.43390625 16.42925781 0.43390625 16.42925781 -0.78125 16.8671875 C-1.54179687 17.13789063 -2.30234375 17.40859375 -3.0859375 17.6875 C-3.7876709 17.93886719 -4.4894043 18.19023437 -5.21240234 18.44921875 C-7 19 -7 19 -9 19 C-7.39369175 14.75707468 -5.4231838 10.72974893 -3.375 6.6875 C-3.05015625 6.04232422 -2.7253125 5.39714844 -2.390625 4.73242188 C-1.59558044 3.15402459 -0.79804366 1.57688306 0 0 Z " fill="#333540" transform="translate(181,140)"/>
<path d="M0 0 C0.7425 0.0825 1.485 0.165 2.25 0.25 C2.25 1.57 2.25 2.89 2.25 4.25 C0.579375 4.6521875 0.579375 4.6521875 -1.125 5.0625 C-4.96840951 5.90809019 -4.96840951 5.90809019 -6.75 9.25 C-7.11433373 11.37337771 -7.11433373 11.37337771 -7.1640625 13.69921875 C-7.20273438 14.54677734 -7.24140625 15.39433594 -7.28125 16.26757812 C-7.32765625 17.58918945 -7.32765625 17.58918945 -7.375 18.9375 C-7.41367188 19.83017578 -7.45234375 20.72285156 -7.4921875 21.64257812 C-7.58640218 23.8448462 -7.67201588 26.04710722 -7.75 28.25 C-9.07 28.25 -10.39 28.25 -11.75 28.25 C-11.75 19.34 -11.75 10.43 -11.75 1.25 C-10.43 1.25 -9.11 1.25 -7.75 1.25 C-7.42 2.24 -7.09 3.23 -6.75 4.25 C-6.193125 3.59 -5.63625 2.93 -5.0625 2.25 C-2.75 0.25 -2.75 0.25 0 0 Z " fill="#F2F2F2" transform="translate(216.75,221.75)"/>
<path d="M0 0 C0.99 3.63 1.98 7.26 3 11 C-3.93 10.01 -10.86 9.02 -18 8 C-18 7.01 -18 6.02 -18 5 C-6.66287016 -0.74031891 -6.66287016 -0.74031891 0 0 Z " fill="#474A54" transform="translate(190,64)"/>
<path d="M0 0 C0.763125 0.20625 1.52625 0.4125 2.3125 0.625 C2.6425 1.945 2.9725 3.265 3.3125 4.625 C5.82333114 3.36958443 6.18375446 2.12436512 7.3125 -0.375 C8.3025 -0.375 9.2925 -0.375 10.3125 -0.375 C10.3125 0.285 10.3125 0.945 10.3125 1.625 C9.3225 1.625 8.3325 1.625 7.3125 1.625 C7.993125 2.388125 8.67375 3.15125 9.375 3.9375 C10.3340625 5.2678125 10.3340625 5.2678125 11.3125 6.625 C10.9825 7.615 10.6525 8.605 10.3125 9.625 C8.25 10.3125 8.25 10.3125 6.3125 10.625 C5.9825 9.635 5.6525 8.645 5.3125 7.625 C4.77625 7.955 4.24 8.285 3.6875 8.625 C0.7733939 9.85199204 -1.55617708 9.76733286 -4.6875 9.625 C-6.08181504 6.83636993 -5.94410094 4.70421132 -5.6875 1.625 C-2.6875 -0.375 -2.6875 -0.375 0 0 Z " fill="#9D9EA2" transform="translate(96.6875,197.375)"/>
<path d="M0 0 C-0.56825653 5.54050113 -2.62886517 10.03715966 -5 15 C-9.56454251 14.45660208 -12.9728176 13.20536179 -17 11 C-14.06072511 7.85177192 -11.0143222 5.54542155 -7.375 3.25 C-6.41335937 2.63640625 -5.45171875 2.0228125 -4.4609375 1.390625 C-2 0 -2 0 0 0 Z " fill="#302B36" transform="translate(217,92)"/>
<path d="M0 0 C4.03810445 1.34603482 5.47295076 3.65336723 8 7 C8 7.66 8 8.32 8 9 C9.32 9.33 10.64 9.66 12 10 C10.02 10.99 10.02 10.99 8 12 C7.67 11.34 7.34 10.68 7 10 C5.02 10 3.04 10 1 10 C3.31 12.64 5.62 15.28 8 18 C7.67 18.66 7.34 19.32 7 20 C2.38 15.38 -2.24 10.76 -7 6 C-5.73134318 3.46268636 -4.50290879 3.21353154 -2 2 C-1.34 1.34 -0.68 0.68 0 0 Z " fill="#941D23" transform="translate(168,73)"/>
<path d="M0 0 C12.85714286 0.85714286 12.85714286 0.85714286 18 3 C16.49324273 6.01351454 14.11347566 6.60409521 11.125 8.0625 C10.05507812 8.58972656 8.98515625 9.11695312 7.8828125 9.66015625 C5 11 5 11 2 12 C1.34 8.04 0.68 4.08 0 0 Z " fill="#2F2B36" transform="translate(196,88)"/>
<path d="M0 0 C-0.11455681 1.91731918 -0.24206258 3.8338675 -0.375 5.75 C-0.44460937 6.81734375 -0.51421875 7.8846875 -0.5859375 8.984375 C-0.9728223 11.80206432 -1.55686166 13.5830366 -3 16 C-6.4087928 14.6015209 -7.87393835 13.14993067 -9.75 10 C-10.17796875 9.29875 -10.6059375 8.5975 -11.046875 7.875 C-12 6 -12 6 -12 4 C-10.3767313 3.3291288 -8.75132422 2.66342971 -7.125 2 C-6.22007812 1.62875 -5.31515625 1.2575 -4.3828125 0.875 C-2 0 -2 0 0 0 Z " fill="#353641" transform="translate(196,134)"/>
<path d="M0 0 C0.99 0.33 1.98 0.66 3 1 C0.69 2.65 -1.62 4.3 -4 6 C-3.01 6.66 -2.02 7.32 -1 8 C-0.01 8.66 0.98 9.32 2 10 C2 10.99 2 11.98 2 13 C-1.71888239 12.49287967 -4.73454239 11.88391785 -8 10 C-8.103125 10.70125 -8.20625 11.4025 -8.3125 12.125 C-9.09359003 15.39137647 -10.42058743 18.0471852 -12 21 C-13.31223496 17.06329512 -12.24296256 14.87511856 -11 11 C-11.66 11 -12.32 11 -13 11 C-12.67 9.68 -12.34 8.36 -12 7 C-12.66 7 -13.32 7 -14 7 C-13.67 6.34 -13.34 5.68 -13 5 C-11.948125 4.87625 -10.89625 4.7525 -9.8125 4.625 C-5.58576922 3.93209331 -3.48608136 2.37687365 0 0 Z " fill="#BF2627" transform="translate(205,96)"/>
<path d="M0 0 C0 3.99065846 -1.91567604 5.9705012 -4.25 9 C-5.03890625 10.051875 -5.8278125 11.10375 -6.640625 12.1875 C-9 15 -9 15 -13 18 C-13.66 14.7 -14.32 11.4 -15 8 C-10.05 5.36 -5.1 2.72 0 0 Z " fill="#342A34" transform="translate(205,114)"/>
<path d="M0 0 C0.99 0.33 1.98 0.66 3 1 C4.37020997 5.11062991 4.06276637 8.66912062 4 13 C-0.29 12.01 -4.58 11.02 -9 10 C-7.25614758 6.51229516 -6.35986729 5.11188499 -3.5625 2.6875 C-2.96566406 2.15511719 -2.36882812 1.62273437 -1.75390625 1.07421875 C-1.17511719 0.71972656 -0.59632813 0.36523438 0 0 Z " fill="#302A35" transform="translate(192,88)"/>
<path d="M0 0 C7.26 0.99 14.52 1.98 22 3 C16.80952381 8.19047619 16.80952381 8.19047619 13 10 C9.1317293 9.63430214 7.0450593 7.5575706 4.25 5 C3.45078125 4.278125 2.6515625 3.55625 1.828125 2.8125 C1.22484375 2.214375 0.6215625 1.61625 0 1 C0 0.67 0 0.34 0 0 Z " fill="#393A45" transform="translate(171,73)"/>
<path d="M0 0 C3.625 0.375 3.625 0.375 6.0625 2.125 C7.625 4.375 7.625 4.375 7.625 8.375 C2.675 8.375 -2.275 8.375 -7.375 8.375 C-4.75961538 0.52884615 -4.75961538 0.52884615 0 0 Z " fill="#373A44" transform="translate(258.375,225.625)"/>
<path d="M0 0 C-0.69380624 3.57056383 -2.1478691 6.43711162 -3.875 9.625 C-4.38804687 10.58664063 -4.90109375 11.54828125 -5.4296875 12.5390625 C-7 15 -7 15 -10 17 C-11.32229189 14.35541621 -11.09677194 12.32238699 -11.0625 9.375 C-11.05347656 8.37210938 -11.04445312 7.36921875 -11.03515625 6.3359375 C-11.02355469 5.56507813 -11.01195312 4.79421875 -11 4 C-9.5437455 3.32880451 -8.08492133 2.66318193 -6.625 2 C-5.81289062 1.62875 -5.00078125 1.2575 -4.1640625 0.875 C-2 0 -2 0 0 0 Z " fill="#31313B" transform="translate(177,142)"/>
<path d="M0 0 C2.375 1.75 2.375 1.75 4 4 C4 5.32 4 6.64 4 8 C-0.95 8 -5.9 8 -11 8 C-8.67741592 1.03224775 -7.24037482 -0.88657651 0 0 Z " fill="#373A44" transform="translate(191,226)"/>
<path d="M0 0 C0.33 0 0.66 0 1 0 C1.05441656 1.89551022 1.09298035 3.7914792 1.125 5.6875 C1.14820313 6.74324219 1.17140625 7.79898438 1.1953125 8.88671875 C0.99858729 12.02251859 0.33057654 14.17645373 -1 17 C-0.30132812 16.6390625 0.39734375 16.278125 1.1171875 15.90625 C2.02726563 15.4421875 2.93734375 14.978125 3.875 14.5 C4.77992188 14.0359375 5.68484375 13.571875 6.6171875 13.09375 C9 12 9 12 11 12 C11 12.66 11 13.32 11 14 C9.5437455 14.67119549 8.08492133 15.33681807 6.625 16 C5.40683594 16.556875 5.40683594 16.556875 4.1640625 17.125 C2 18 2 18 0 18 C0 18.66 0 19.32 0 20 C0.78375 20.2475 1.5675 20.495 2.375 20.75 C6.98401329 22.33931493 11.48547716 24.16207173 16 26 C16 27.32 16 28.64 16 30 C14.35 30 12.7 30 11 30 C11.66 29.01 12.32 28.02 13 27 C11.10435574 26.20788071 9.20847629 25.41632424 7.3125 24.625 C6.25675781 24.18414062 5.20101562 23.74328125 4.11328125 23.2890625 C1.41643343 22.17242538 -1.28716264 21.07708199 -4 20 C-2.66666667 13.33333333 -1.33333333 6.66666667 0 0 Z " fill="#DFDFE0" transform="translate(196,134)"/>
<path d="M0 0 C10.71428571 0.85714286 10.71428571 0.85714286 15 3 C9.35475578 8.80205656 9.35475578 8.80205656 6 11 C5.34 11 4.68 11 4 11 C2.68 7.37 1.36 3.74 0 0 Z " fill="#312A35" transform="translate(176,84)"/>
<path d="M0 0 C1.24888752 2.05699121 1.99504796 3.50875737 2.01953125 5.9375 C0.34316866 9.32876225 -3.00644076 10.02279255 -6.375 11.25 C-7.06078125 11.518125 -7.7465625 11.78625 -8.453125 12.0625 C-11.43036641 13.1977905 -13.78971192 14 -17 14 C-16.16855469 13.24074219 -15.33710938 12.48148438 -14.48046875 11.69921875 C-13.38277925 10.69534886 -12.28512484 9.6914406 -11.1875 8.6875 C-10.64029297 8.18798828 -10.09308594 7.68847656 -9.52929688 7.17382812 C-6.31255724 4.23247907 -6.31255724 4.23247907 -3.23828125 1.14453125 C-2 0 -2 0 0 0 Z " fill="#322934" transform="translate(189,126)"/>
<path d="M0 0 C7.42857143 1 7.42857143 1 11 2 C9.55661511 5.415759 7.75105832 7.36026263 4.9375 9.75 C3.86822266 10.67039062 3.86822266 10.67039062 2.77734375 11.609375 C1 13 1 13 0 13 C0 8.71 0 4.42 0 0 Z " fill="#302A35" transform="translate(182,101)"/>
<path d="M0 0 C0.763125 0.20625 1.52625 0.4125 2.3125 0.625 C2.9375 3.4375 2.9375 3.4375 3.3125 6.625 C2.3225 8.11 2.3225 8.11 1.3125 9.625 C-1.8125 9.8125 -1.8125 9.8125 -4.6875 9.625 C-6.08181504 6.83636993 -5.94410094 4.70421132 -5.6875 1.625 C-2.6875 -0.375 -2.6875 -0.375 0 0 Z " fill="#76787E" transform="translate(115.6875,197.375)"/>
<path d="M0 0 C3.66881155 0.70554068 6.70450534 2.27735506 10 4 C0.57142857 12 0.57142857 12 -4 12 C-2.66666667 8 -1.33333333 4 0 0 Z " fill="#352B35" transform="translate(197,106)"/>
<path d="M0 0 C1.28317892 3.84953676 1.06643637 6.94738135 1 11 C-0.62974564 10.23925157 -2.25366648 9.46601567 -3.875 8.6875 C-4.77992188 8.25824219 -5.68484375 7.82898438 -6.6171875 7.38671875 C-9 6 -9 6 -11 3 C-9.73160474 2.49384702 -8.46016898 1.99530901 -7.1875 1.5 C-6.12595703 1.08234375 -6.12595703 1.08234375 -5.04296875 0.65625 C-3 0 -3 0 0 0 Z " fill="#32323D" transform="translate(212,129)"/>
<path d="M0 0 C0.99 0.33 1.98 0.66 3 1 C2.34 1.66 1.68 2.32 1 3 C7.51509425 5.55950131 13.66575313 6.61325432 20.58984375 7.26513672 C25.79713123 7.79713123 25.79713123 7.79713123 28 10 C-0.42536476 8.99102132 -0.42536476 8.99102132 -5.9140625 4.3984375 C-6.27242187 3.93695313 -6.63078125 3.47546875 -7 3 C-4.03 3.495 -4.03 3.495 -1 4 C-0.67 2.68 -0.34 1.36 0 0 Z " fill="#D0D1D2" transform="translate(173,187)"/>
<path d="M0 0 C1 2 1 2 0.109375 4.78515625 C-0.33921875 5.86667969 -0.7878125 6.94820313 -1.25 8.0625 C-1.68828125 9.14660156 -2.1265625 10.23070313 -2.578125 11.34765625 C-4 14 -4 14 -7 15 C-7 14.34 -7 13.68 -7 13 C-8.32 12.34 -9.64 11.68 -11 11 C-7.6189962 6.86378916 -4.33409466 3.18683431 0 0 Z " fill="#312A34" transform="translate(194,106)"/>
<path d="M0 0 C0.33 0 0.66 0 1 0 C1.54372951 3.05847848 2 5.88772805 2 9 C1.38511719 9.18175781 0.77023438 9.36351562 0.13671875 9.55078125 C-0.67152344 9.80214844 -1.47976562 10.05351562 -2.3125 10.3125 C-3.51326172 10.67794922 -3.51326172 10.67794922 -4.73828125 11.05078125 C-7.09964573 12.04182023 -8.33879993 13.08074943 -10 15 C-10.99 14.67 -11.98 14.34 -13 14 C-13.33 14.66 -13.66 15.32 -14 16 C-14.99 16 -15.98 16 -17 16 C-16.96875 14.1796875 -16.96875 14.1796875 -16 12 C-12.82166022 10.58162874 -9.68837948 9.49350666 -6.37109375 8.46484375 C-4.06600604 7.71699948 -4.06600604 7.71699948 -1 6 C0.09818243 2.91377399 0.09818243 2.91377399 0 0 Z " fill="#9D1E23" transform="translate(191,127)"/>
<path d="M0 0 C0.66 0 1.32 0 2 0 C2.98043964 2.94131891 3.11621202 4.82501665 3.09765625 7.88671875 C3.09443359 8.82451172 3.09121094 9.76230469 3.08789062 10.72851562 C3.07951172 11.70498047 3.07113281 12.68144531 3.0625 13.6875 C3.05798828 14.67556641 3.05347656 15.66363281 3.04882812 16.68164062 C3.03704303 19.12115474 3.02059011 21.56054689 3 24 C2.67 24 2.34 24 2 24 C1.87625 22.329375 1.87625 22.329375 1.75 20.625 C1.42126213 16.94246056 1.42126213 16.94246056 -1.0625 15.5625 C-1.701875 15.376875 -2.34125 15.19125 -3 15 C-2.67 14.34 -2.34 13.68 -2 13 C-2.99 12.01 -3.98 11.02 -5 10 C-3.68 10.33 -2.36 10.66 -1 11 C-1.01160156 10.28972656 -1.02320313 9.57945312 -1.03515625 8.84765625 C-1.04869141 7.46900391 -1.04869141 7.46900391 -1.0625 6.0625 C-1.07410156 5.14597656 -1.08570313 4.22945312 -1.09765625 3.28515625 C-1 1 -1 1 0 0 Z " fill="#CBCBCC" transform="translate(213,128)"/>
<path d="M0 0 C3.34998521 1.11666174 3.79340222 1.74694925 5.6875 4.5625 C6.34298828 5.52349609 6.34298828 5.52349609 7.01171875 6.50390625 C7.33785156 6.99761719 7.66398438 7.49132812 8 8 C3.17639811 8.19294408 -0.49646738 7.75747614 -5 6 C-3.35 4.02 -1.7 2.04 0 0 Z " fill="#36333D" transform="translate(168,73)"/>
<path d="M0 0 C0.33 0.99 0.66 1.98 1 3 C0.01 4.485 0.01 4.485 -1 6 C-0.67 6.33 -0.34 6.66 0 7 C0.04092937 9.33297433 0.04241723 11.66705225 0 14 C-0.33 14 -0.66 14 -1 14 C-1 12.02 -1 10.04 -1 8 C-1.55429688 8.30035156 -2.10859375 8.60070312 -2.6796875 8.91015625 C-3.76636719 9.48056641 -3.76636719 9.48056641 -4.875 10.0625 C-5.59429687 10.44535156 -6.31359375 10.82820312 -7.0546875 11.22265625 C-7.69664062 11.47917969 -8.33859375 11.73570312 -9 12 C-9.66 11.67 -10.32 11.34 -11 11 C-7.37 7.37 -3.74 3.74 0 0 Z " fill="#9A353A" transform="translate(166,140)"/>
<path d="M0 0 C0.061875 0.598125 0.12375 1.19625 0.1875 1.8125 C1.3236757 4.87143458 3.17330142 5.55041099 6 7 C5.01 7.495 5.01 7.495 4 8 C1.5249829 6.88568235 -0.67883419 5.41849022 -3 4 C-3.33 6.31 -3.66 8.62 -4 11 C-4.33 11 -4.66 11 -5 11 C-5 8.69 -5 6.38 -5 4 C-6.98 4.33 -8.96 4.66 -11 5 C-8.00399436 0.50599154 -5.30375828 0 0 0 Z " fill="#B76E72" transform="translate(202,130)"/>
<path d="M0 0 C1.65 0 3.3 0 5 0 C6.16161779 2.86578759 5.9946154 4.01630163 5.00390625 7.015625 C4.29041016 8.61664063 4.29041016 8.61664063 3.5625 10.25 C3.08941406 11.32765625 2.61632812 12.4053125 2.12890625 13.515625 C1.75636719 14.33546875 1.38382813 15.1553125 1 16 C0.34 16 -0.32 16 -1 16 C-0.01 12.04 0.98 8.08 2 4 C0.02 4.33 -1.96 4.66 -4 5 C-2.68 4.34 -1.36 3.68 0 3 C0 2.01 0 1.02 0 0 Z " fill="#BDBDBF" transform="translate(202,180)"/>
<path d="M0 0 C1.2065625 0.0309375 1.2065625 0.0309375 2.4375 0.0625 C3.0625 2.4375 3.0625 2.4375 3.4375 5.0625 C2.7775 5.7225 2.1175 6.3825 1.4375 7.0625 C-1.1875 6.6875 -1.1875 6.6875 -3.5625 6.0625 C-3.605221 4.39638095 -3.60313832 2.72867115 -3.5625 1.0625 C-2.5625 0.0625 -2.5625 0.0625 0 0 Z " fill="#343741" transform="translate(95.5625,198.9375)"/>
<path d="M0 0 C0.66 0 1.32 0 2 0 C2.12117187 0.63808594 2.24234375 1.27617187 2.3671875 1.93359375 C2.53476563 2.75988281 2.70234375 3.58617187 2.875 4.4375 C3.03742188 5.26121094 3.19984375 6.08492187 3.3671875 6.93359375 C3.57601562 7.61550781 3.78484375 8.29742187 4 9 C4.66 9.33 5.32 9.66 6 10 C6 10.66 6 11.32 6 12 C5.01 12.33 4.02 12.66 3 13 C0.98841004 11.32367504 0.08629296 10.35133561 -0.546875 7.7734375 C-0.61390625 6.98195312 -0.6809375 6.19046875 -0.75 5.375 C-0.82734375 4.57835937 -0.9046875 3.78171875 -0.984375 2.9609375 C-0.98953125 2.31382812 -0.9946875 1.66671875 -1 1 C-0.67 0.67 -0.34 0.34 0 0 Z " fill="#E0E0E2" transform="translate(163,148)"/>
<path d="M0 0 C2.52588702 2.36292656 3.88820837 3.66462511 5 7 C3.741875 6.87625 2.48375 6.7525 1.1875 6.625 C0.12595703 6.52058594 0.12595703 6.52058594 -0.95703125 6.4140625 C-3 6 -3 6 -6 4 C-4.02 2.68 -2.04 1.36 0 0 Z " fill="#383742" transform="translate(193,78)"/>
<path d="M0 0 C2.31 0.33 4.62 0.66 7 1 C7.53229326 2.26607607 8.05044544 3.53810412 8.5625 4.8125 C8.85253906 5.52019531 9.14257812 6.22789063 9.44140625 6.95703125 C10 9 10 9 9 12 C6 8 3 4 0 0 Z " fill="#372731" transform="translate(168,82)"/>
<path d="M0 0 C0.66 0.33 1.32 0.66 2 1 C0.58653438 2.44064765 -0.83091211 3.87739015 -2.25 5.3125 C-3.43335938 6.51326172 -3.43335938 6.51326172 -4.640625 7.73828125 C-6.67394067 9.68743651 -8.70601078 11.37421406 -11 13 C-11.66 12.67 -12.32 12.34 -13 12 C-9.12207712 7.07091854 -5.23883167 3.4576289 0 0 Z " fill="#352730" transform="translate(182,127)"/>
<path d="M0 0 C0.99 0.33 1.98 0.66 3 1 C2.34 1.66 1.68 2.32 1 3 C2.98 3.66 4.96 4.32 7 5 C4 7 4 7 1.5546875 6.828125 C0.67039063 6.63734375 -0.21390625 6.4465625 -1.125 6.25 C-2.45917969 5.97929687 -2.45917969 5.97929687 -3.8203125 5.703125 C-4.53960937 5.47109375 -5.25890625 5.2390625 -6 5 C-6.33 4.34 -6.66 3.68 -7 3 C-4.03 3.495 -4.03 3.495 -1 4 C-0.67 2.68 -0.34 1.36 0 0 Z " fill="#B7BCC2" transform="translate(173,187)"/>
<path d="M0 0 C0.66 0.33 1.32 0.66 2 1 C1.67 2.32 1.34 3.64 1 5 C0.34 5 -0.32 5 -1 5 C-1.12375 5.928125 -1.2475 6.85625 -1.375 7.8125 C-2 11 -2 11 -4 14 C-4 14.99 -4 15.98 -4 17 C-5.32 17.33 -6.64 17.66 -8 18 C-6.443154 13.98696492 -4.68861143 10.0907072 -2.875 6.1875 C-2.33617187 5.02605469 -1.79734375 3.86460938 -1.2421875 2.66796875 C-0.62730469 1.34732422 -0.62730469 1.34732422 0 0 Z " fill="#AB1F24" transform="translate(181,115)"/>
<path d="M0 0 C2.79872437 2.52788007 4.45773019 4.20411134 5 8 C4.34 8 3.68 8 3 8 C3.99 9.32 4.98 10.64 6 12 C5.67 12.66 5.34 13.32 5 14 C0.79289518 8.84290377 -0.12440607 6.71792803 0 0 Z " fill="#939FAC" transform="translate(141,168)"/>
<path d="M0 0 C0.33 1.32 0.66 2.64 1 4 C-3.7517398 3.56802365 -5.92000054 2.67230705 -9 -1 C-5.79937313 -2.60031344 -3.27728194 -1.03173691 0 0 Z " fill="#D12C29" transform="translate(206,105)"/>
<path d="M0 0 C1.65 0.33 3.3 0.66 5 1 C3.50902342 4.7952131 1.24299151 6.61042731 -2 9 C-2.66 8.67 -3.32 8.34 -4 8 C-2.68 5.36 -1.36 2.72 0 0 Z " fill="#342731" transform="translate(180,121)"/>
<path d="M0 0 C0.66 0 1.32 0 2 0 C0.43632643 3.52238047 -1.69495889 6.27123994 -4.125 9.25 C-4.84945312 10.14203125 -5.57390625 11.0340625 -6.3203125 11.953125 C-7.15175781 12.96632812 -7.15175781 12.96632812 -8 14 C-8.99 13.67 -9.98 13.34 -11 13 C-10.54109375 12.48050781 -10.0821875 11.96101562 -9.609375 11.42578125 C-6.88819799 8.33301494 -4.20354452 5.26405775 -1.6875 2 C-1.130625 1.34 -0.57375 0.68 0 0 Z " fill="#B32427" transform="translate(204,118)"/>
<path d="M0 0 C3.36472746 1.92270141 3.96154314 4.7011775 5.1875 8.25 C1.45110784 7.00453595 0.99993487 5.61595047 -0.8125 2.25 C-2.4521875 3.2709375 -2.4521875 3.2709375 -4.125 4.3125 C-5.98828125 5.47265625 -5.98828125 5.47265625 -7.8125 6.25 C-8.8025 5.92 -9.7925 5.59 -10.8125 5.25 C-3.98558874 0.35427455 -3.98558874 0.35427455 0 0 Z " fill="#DBDDE0" transform="translate(194.8125,76.75)"/>
<path d="M0 0 C0.99 0 1.98 0 3 0 C3 4.29 3 8.58 3 13 C2.34 13 1.68 13 1 13 C0.77213542 11.01432292 0.54427083 9.02864583 0.31640625 7.04296875 C0.02829265 4.80603607 0.02829265 4.80603607 -1 2 C-0.67 1.34 -0.34 0.68 0 0 Z " fill="#B3B3B5" transform="translate(65,194)"/>
<path d="M0 0 C1.305239 3.91571701 0.32239848 5.03892997 -1.4375 8.6875 C-1.91058594 9.68136719 -2.38367188 10.67523438 -2.87109375 11.69921875 C-3.42990234 12.83810547 -3.42990234 12.83810547 -4 14 C-4.66 14 -5.32 14 -6 14 C-5.41162314 9.29298514 -3.44104424 3.44104424 0 0 Z " fill="#F1F1F2" transform="translate(192,155)"/>
<path d="M0 0 C0.99 0.33 1.98 0.66 3 1 C4.03865096 3.36695387 4.89577096 5.61555495 5.6875 8.0625 C5.91244141 8.72572266 6.13738281 9.38894531 6.36914062 10.07226562 C6.92334719 11.71130207 7.46306085 13.35522593 8 15 C5.36 14.67 2.72 14.34 0 14 C0 13.67 0 13.34 0 13 C1.65 13 3.3 13 5 13 C4.7834375 12.45730469 4.566875 11.91460937 4.34375 11.35546875 C4.0653125 10.64003906 3.786875 9.92460938 3.5 9.1875 C3.2215625 8.47980469 2.943125 7.77210937 2.65625 7.04296875 C2 5 2 5 2 2 C0.68 1.67 -0.64 1.34 -2 1 C-1.34 0.67 -0.68 0.34 0 0 Z " fill="#C9CBCE" transform="translate(188,62)"/>
<path d="M0 0 C0.66 0 1.32 0 2 0 C2 0.66 2 1.32 2 2 C2.66 2 3.32 2 4 2 C4 2.66 4 3.32 4 4 C3.34 4 2.68 4 2 4 C2 6.31 2 8.62 2 11 C2.66 11.33 3.32 11.66 4 12 C2.68 11.67 1.36 11.34 0 11 C-0.19491452 9.54263913 -0.38069358 8.08405407 -0.5625 6.625 C-0.66691406 5.81289062 -0.77132812 5.00078125 -0.87890625 4.1640625 C-1 2 -1 2 0 0 Z " fill="#ACADAE" transform="translate(128,195)"/>
<path d="M0 0 C-4.53669968 3.01679014 -8.68972746 5.53967505 -14 7 C-5.79310345 -1.93103448 -5.79310345 -1.93103448 0 0 Z " fill="#D72D2A" transform="translate(207,113)"/>
<path d="M0 0 C0.51046875 0.37898437 1.0209375 0.75796875 1.546875 1.1484375 C-0.69936199 1.84813432 -2.95028914 2.53278793 -5.203125 3.2109375 C-6.45609375 3.59378906 -7.7090625 3.97664062 -9 4.37109375 C-12.1269258 5.07500578 -13.54778546 5.31497535 -16.453125 4.1484375 C-14.20908798 3.25442275 -11.96022367 2.38328461 -9.703125 1.5234375 C-9.06890625 1.26820313 -8.4346875 1.01296875 -7.78125 0.75 C-3.00217062 -1.04215477 -3.00217062 -1.04215477 0 0 Z " fill="#D5D7DA" transform="translate(178.453125,175.8515625)"/>
<path d="M0 0 C0 0.66 0 1.32 0 2 C-3.19026533 4.32019297 -6.41726669 6.34643078 -10 8 C-10 7.01 -10 6.02 -10 5 C-8.57421875 3.61328125 -8.57421875 3.61328125 -6.6875 2.3125 C-6.07261719 1.87550781 -5.45773438 1.43851562 -4.82421875 0.98828125 C-3 0 -3 0 0 0 Z " fill="#C6CCD3" transform="translate(172,70)"/>
<path d="M0 0 C2.50085065 2.37773185 4.58683303 4.95266942 6.6875 7.6875 C7.31011719 8.49574219 7.93273437 9.30398437 8.57421875 10.13671875 C9.04472656 10.75160156 9.51523438 11.36648437 10 12 C9.67 12.66 9.34 13.32 9 14 C7.86874978 12.92319498 6.74525081 11.83824365 5.625 10.75 C4.99851563 10.14671875 4.37203125 9.5434375 3.7265625 8.921875 C1.07471658 5.97004651 0 3.99211238 0 0 Z " fill="#ECECED" transform="translate(183,139)"/>
<path d="M0 0 C0.33 0.66 0.66 1.32 1 2 C1.66 2 2.32 2 3 2 C2.67 2.66 2.34 3.32 2 4 C0.01014051 4.38932033 -1.99199544 4.71887936 -4 5 C-4.99 5.33 -5.98 5.66 -7 6 C-7.33 5.01 -7.66 4.02 -8 3 C-5.36 2.01 -2.72 1.02 0 0 Z " fill="#DFDFE0" transform="translate(191,152)"/>
<path d="M0 0 C0.66 0 1.32 0 2 0 C1.42647107 3.87132028 -0.48704352 6.08172796 -3 9 C-3.66 8.67 -4.32 8.34 -5 8 C-4.21718695 6.66144944 -3.42348123 5.32926356 -2.625 4 C-2.18414062 3.2575 -1.74328125 2.515 -1.2890625 1.75 C-0.86367187 1.1725 -0.43828125 0.595 0 0 Z " fill="#EAEBEB" transform="translate(179,178)"/>
<path d="M0 0 C1.98 0 3.96 0 6 0 C5.67 0.99 5.34 1.98 5 3 C4.34 2.67 3.68 2.34 3 2 C2.67 2.66 2.34 3.32 2 4 C1.01 4 0.02 4 -1 4 C-0.67 2.68 -0.34 1.36 0 0 Z " fill="#9C3136" transform="translate(175,139)"/>
<path d="M0 0 C1.32 0 2.64 0 4 0 C3.875 1.8125 3.875 1.8125 3 4 C-0.0625 5.75 -0.0625 5.75 -3 7 C-3.66 6.34 -4.32 5.68 -5 5 C-2.69 4.01 -0.38 3.02 2 2 C1.34 1.34 0.68 0.68 0 0 Z " fill="#8E1E23" transform="translate(211,90)"/>
<path d="M0 0 C7.42857143 -0.28571429 7.42857143 -0.28571429 11 2 C9.02 2.99 9.02 2.99 7 4 C6.67 3.34 6.34 2.68 6 2 C2.97065509 1.34227572 2.97065509 1.34227572 0 1 C0 0.67 0 0.34 0 0 Z " fill="#A21A1F" transform="translate(169,81)"/>
<path d="M0 0 C0 0.66 0 1.32 0 2 C-2.90600261 3.25664978 -4.79604584 4 -8 4 C-7.67 3.01 -7.34 2.02 -7 1 C-4.52260646 0.09162237 -2.66420516 0 0 0 Z " fill="#EBEBEC" transform="translate(184,156)"/>
<path d="M0 0 C-1.65 1.32 -3.3 2.64 -5 4 C-7.475 3.01 -7.475 3.01 -10 2 C-5.86678317 -0.75547789 -4.77928863 -1.13193678 0 0 Z " fill="#9A272C" transform="translate(187,137)"/>
<path d="M0 0 C1.65 0.33 3.3 0.66 5 1 C5 3.64 5 6.28 5 9 C4.67 9 4.34 9 4 9 C4 6.69 4 4.38 4 2 C2.02 2.33 0.04 2.66 -2 3 C-1.34 2.01 -0.68 1.02 0 0 Z " fill="#A34E52" transform="translate(193,132)"/>
<path d="M0 0 C0.33 0.99 0.66 1.98 1 3 C1.66 3 2.32 3 3 3 C3 3.66 3 4.32 3 5 C2.34 5 1.68 5 1 5 C1 7.64 1 10.28 1 13 C0.67 13 0.34 13 0 13 C-0.19658808 11.58456585 -0.38187546 10.16755969 -0.5625 8.75 C-0.66691406 7.96109375 -0.77132812 7.1721875 -0.87890625 6.359375 C-1.00027349 3.99467126 -0.69633257 2.2488963 0 0 Z " fill="#D0D1D1" transform="translate(122,194)"/>
<path d="M0 0 C1.98 0.66 3.96 1.32 6 2 C6 3.32 6 4.64 6 6 C4.35 6 2.7 6 1 6 C1.66 5.01 2.32 4.02 3 3 C2.01 2.67 1.02 2.34 0 2 C0 1.34 0 0.68 0 0 Z " fill="#939498" transform="translate(206,158)"/>
<path d="M0 0 C0.66 0.66 1.32 1.32 2 2 C-3.75 7 -3.75 7 -6 7 C-4.60667426 3.63279613 -3.0210714 2.0140476 0 0 Z " fill="#A71F24" transform="translate(191,106)"/>
<path d="M0 0 C1.32 0.33 2.64 0.66 4 1 C1.37801226 3.15377564 -0.64404172 4.40072174 -4 5 C-2.68 3.35 -1.36 1.7 0 0 Z " fill="#A32026" transform="translate(159,147)"/>
<path d="M0 0 C2.97 0.495 2.97 0.495 6 1 C4.8125 2.5625 4.8125 2.5625 3 4 C0.3125 3.6875 0.3125 3.6875 -2 3 C-1.34 2.67 -0.68 2.34 0 2 C0 1.34 0 0.68 0 0 Z " fill="#981D23" transform="translate(188,99)"/>
</svg>
